<?xml version="1.0" encoding="utf-8"?>
<!-- Generator: Adobe Illustrator 24.1.1, SVG Export Plug-In . SVG Version: 6.00 Build 0)  -->
<svg version="1.1" id="Layer_1" xmlns="http://www.w3.org/2000/svg" xmlns:xlink="http://www.w3.org/1999/xlink" x="0px" y="0px"
	 viewBox="0 0 180 180" style="enable-background:new 0 0 180 180;" xml:space="preserve">
<style type="text/css">
	.st0{fill:url(#SVGID_1_);}
	.st1{fill:url(#SVGID_2_);}
</style>
<g>
	<linearGradient id="SVGID_1_" gradientUnits="userSpaceOnUse" x1="20.6701" y1="20.37" x2="157.559" y2="157.8515">
		<stop  offset="0" style="stop-color:#1F8ADB"/>
		<stop  offset="1" style="stop-color:#F52A8C"/>
	</linearGradient>
	<path class="st0" d="M162,10c4.4,0,8,3.6,8,8v144c0,4.4-3.6,8-8,8H18c-4.4,0-8-3.6-8-8V18c0-4.4,3.6-8,8-8H162 M162,0H18
		C8.1,0,0,8.1,0,18v144c0,9.9,8.1,18,18,18h144c9.9,0,18-8.1,18-18V18C180,8.1,171.9,0,162,0L162,0z"/>
	<linearGradient id="SVGID_2_" gradientUnits="userSpaceOnUse" x1="18.4577" y1="22.573" x2="155.3466" y2="160.0544">
		<stop  offset="0" style="stop-color:#1F8ADB"/>
		<stop  offset="1" style="stop-color:#F52A8C"/>
	</linearGradient>
	<path class="st1" d="M140,85.8c0-6.5-3.1-12.7-8.3-16.6v-0.1c0-7.9-5.5-14.5-12.9-16.2C117,45.5,110.4,40,102.5,40
		c-5,0-9.5,2.2-12.5,5.7c-3-3.5-7.5-5.7-12.5-5.7c-7.9,0-14.5,5.5-16.3,12.9c-7.4,1.7-12.9,8.3-12.9,16.2v0.1
		c-5.2,3.9-8.3,10-8.3,16.6c0,3.7,1,7.3,2.9,10.4C41,99.4,40,103,40,106.7c0,7,3.6,13.5,9.5,17.4c3,9.5,11.7,16,21.8,16
		c7.8,0,14.6-3.9,18.8-9.8c4.2,5.9,11,9.8,18.8,9.8c10.1,0,18.8-6.5,21.8-16c5.9-3.8,9.5-10.3,9.5-17.4c0-3.7-1-7.3-2.9-10.4
		C139,93.1,140,89.5,140,85.8z M71.3,131.7c-6.8,0-12.6-4.7-14.2-11.3l-0.4-1.8l-1.7-0.9c-4.1-2.2-6.7-6.4-6.7-11
		c0-2.8,1-5.5,2.8-7.8l2.1-2.6l-2.1-2.6c-1.8-2.3-2.8-5-2.8-7.8c0-4.5,2.5-8.6,6.4-10.8l2.6-1.5c0,0-0.7-3.9-0.7-4.4
		c0-4.6,3.8-8.3,8.3-8.3h4.2v-4.2c0-4.6,3.8-8.3,8.3-8.3s8.3,3.8,8.3,8.3v60.4C85.8,125.2,79.3,131.7,71.3,131.7L71.3,131.7z
		 M128.8,98.9c1.8,2.3,2.8,5,2.8,7.8c0,4.6-2.5,8.8-6.7,11l-1.7,0.9l-0.4,1.8c-1.5,6.7-7.4,11.3-14.2,11.3c-8,0-14.6-6.5-14.6-14.6
		V56.7c0-4.6,3.8-8.3,8.3-8.3s8.3,3.8,8.3,8.3v4.2h4.2c4.6,0,8.3,3.8,8.3,8.3c0,0.5-0.7,4.4-0.7,4.4l2.6,1.5c4,2.3,6.4,6.4,6.4,10.8
		c0,2.8-1,5.5-2.8,7.8l-2.1,2.6L128.8,98.9z"/>
</g>
</svg>
