<?xml version="1.0" encoding="utf-8"?>
<!-- Generator: Adobe Illustrator 24.1.1, SVG Export Plug-In . SVG Version: 6.00 Build 0)  -->
<svg version="1.1" id="Layer_1" xmlns="http://www.w3.org/2000/svg" xmlns:xlink="http://www.w3.org/1999/xlink" x="0px" y="0px"
	 viewBox="0 0 180 180" style="enable-background:new 0 0 180 180;" xml:space="preserve">
<style type="text/css">
	.st0{fill:url(#SVGID_1_);}
	.st1{fill:url(#SVGID_2_);}
</style>
<g>
	<linearGradient id="SVGID_1_" gradientUnits="userSpaceOnUse" x1="21.1028" y1="23.3692" x2="156.2139" y2="154.0358">
		<stop  offset="0" style="stop-color:#1F8ADB"/>
		<stop  offset="1" style="stop-color:#F52A8C"/>
	</linearGradient>
	<path class="st0" d="M121.8,40H58.2c-12.5,0-22.7,10.2-22.7,22.7v54.5c0,12.5,10.2,22.7,22.7,22.7h63.6c12.5,0,22.7-10.2,22.7-22.7
		V62.7C144.5,50.2,134.4,40,121.8,40z M58.2,49.1h63.6c5.6,0,10.6,3.4,12.6,8.6L99.6,92.5c-5.3,5.3-14,5.3-19.3,0L45.5,57.7
		C47.6,52.5,52.6,49.1,58.2,49.1z M121.8,130.9H58.2c-7.5,0-13.6-6.1-13.6-13.6V69.5l29.4,29.4c8.9,8.9,23.3,8.9,32.1,0l29.4-29.4
		v47.7C135.5,124.8,129.3,130.9,121.8,130.9z"/>
	<linearGradient id="SVGID_2_" gradientUnits="userSpaceOnUse" x1="21.1028" y1="23.3691" x2="156.2139" y2="154.0358">
		<stop  offset="0" style="stop-color:#1F8ADB"/>
		<stop  offset="1" style="stop-color:#F52A8C"/>
	</linearGradient>
	<path class="st1" d="M162,10c4.4,0,8,3.6,8,8v144c0,4.4-3.6,8-8,8H18c-4.4,0-8-3.6-8-8V18c0-4.4,3.6-8,8-8H162 M162,0H18
		C8.1,0,0,8.1,0,18v144c0,9.9,8.1,18,18,18h144c9.9,0,18-8.1,18-18V18C180,8.1,171.9,0,162,0L162,0z"/>
</g>
</svg>
