<?xml version="1.0" encoding="utf-8"?>
<!-- Generator: Adobe Illustrator 24.1.1, SVG Export Plug-In . SVG Version: 6.00 Build 0)  -->
<svg version="1.1" id="Layer_1" xmlns="http://www.w3.org/2000/svg" xmlns:xlink="http://www.w3.org/1999/xlink" x="0px" y="0px"
	 viewBox="0 0 180 180" style="enable-background:new 0 0 180 180;" xml:space="preserve">
<style type="text/css">
	.st0{fill:url(#SVGID_1_);}
	.st1{fill:url(#SVGID_2_);}
</style>
<g>
	<linearGradient id="SVGID_1_" gradientUnits="userSpaceOnUse" x1="21.2748" y1="20.3585" x2="154.6081" y2="155.4696">
		<stop  offset="0" style="stop-color:#1F8ADB"/>
		<stop  offset="1" style="stop-color:#F52A8C"/>
	</linearGradient>
	<path class="st0" d="M162,10c4.4,0,8,3.6,8,8v144c0,4.4-3.6,8-8,8H18c-4.4,0-8-3.6-8-8V18c0-4.4,3.6-8,8-8H162 M162,0H18
		C8.1,0,0,8.1,0,18v144c0,9.9,8.1,18,18,18h144c9.9,0,18-8.1,18-18V18C180,8.1,171.9,0,162,0L162,0z"/>
	<linearGradient id="SVGID_2_" gradientUnits="userSpaceOnUse" x1="22.2911" y1="19.3556" x2="155.6244" y2="154.4667">
		<stop  offset="0" style="stop-color:#1F8ADB"/>
		<stop  offset="1" style="stop-color:#F52A8C"/>
	</linearGradient>
	<path class="st1" d="M138.4,68.5l-5.6-11.8c-1.5-3-4.1-5.4-7.3-6.5l-26.2-8.7c-6-2-12.5-2-18.5,0l-26.2,8.7
		c-3.2,1.1-5.9,3.4-7.3,6.5L41.8,68c-2,3.3-2.4,7.3-1,10.9c1.3,3.5,4,6.2,7.5,7.5l0,26.3c0,9,5.7,16.9,14.2,19.8l18.2,6.1
		c3,1,6.1,1.5,9.2,1.5s6.3-0.5,9.2-1.5l18.2-6.1c8.5-2.8,14.2-10.8,14.2-19.7l0-26.3c3.5-1.2,6.3-3.9,7.6-7.5
		C140.5,75.3,140.2,71.4,138.4,68.5L138.4,68.5z M83.4,49.4c4.3-1.4,8.9-1.4,13.2,0l17.7,5.9L90,63.4l-24.3-8.1L83.4,49.4L83.4,49.4
		z M49.1,71.9l5.5-11.6c0.2,0.1,29.4,9.9,29.4,9.9l-6.8,13.6c-1,1.7-3.1,2.4-4.9,1.8l-21.2-7.1c-1.2-0.4-2.2-1.4-2.7-2.6
		S48.3,73.4,49.1,71.9L49.1,71.9z M65.1,124.5c-5.1-1.7-8.6-6.5-8.5-11.9l0-23.5l13.2,4.4c5.6,1.9,11.6-0.4,14.8-5.7l1.2-2.3l0,45.8
		c-0.8-0.2-1.6-0.4-2.4-0.6L65.1,124.5L65.1,124.5z M114.7,124.5l-18.2,6.1c-0.8,0.3-1.6,0.5-2.4,0.6l0-45.8l1.3,2.7
		c2.3,3.9,6.4,6.1,10.7,6.1c1.3,0,2.7-0.2,4-0.7l13.2-4.4l0,23.5C123.3,118.1,119.8,122.8,114.7,124.5L114.7,124.5z M131.4,76
		c-0.4,1.2-1.4,2.1-2.6,2.5l-21.3,7.1c-1.8,0.6-3.9-0.1-4.7-1.5l-6.9-13.8c0,0,29.2-9.8,29.4-9.9l5.8,12.1
		C131.7,73.5,131.8,74.8,131.4,76L131.4,76z"/>
</g>
</svg>
