<?xml version="1.0" encoding="utf-8"?>
<!-- Generator: Adobe Illustrator 24.1.1, SVG Export Plug-In . SVG Version: 6.00 Build 0)  -->
<svg version="1.1" id="Layer_1" xmlns="http://www.w3.org/2000/svg" xmlns:xlink="http://www.w3.org/1999/xlink" x="0px" y="0px"
	 viewBox="0 0 180 180" style="enable-background:new 0 0 180 180;" xml:space="preserve">
<style type="text/css">
	.st0{fill:url(#SVGID_1_);}
	.st1{fill:url(#SVGID_2_);}
</style>
<g>
	
		<linearGradient id="SVGID_1_" gradientUnits="userSpaceOnUse" x1="19.2269" y1="17.6947" x2="157.0046" y2="157.2502" gradientTransform="matrix(1 9.038675e-04 -9.038675e-04 1 4.462399e-03 0.4601)">
		<stop  offset="0" style="stop-color:#1F8ADB"/>
		<stop  offset="1" style="stop-color:#F52A8C"/>
	</linearGradient>
	<path class="st0" d="M162.1,10.1c4.4,0,8,3.6,8,8l-0.1,144c0,4.4-3.6,8-8,8l-144-0.1c-4.4,0-8-3.6-8-8l0.1-144c0-4.4,3.6-8,8-8
		L162.1,10.1 M162.1,0.1l-144-0.1c-9.9,0-18,8.1-18,18l-0.1,144c0,9.9,8.1,18,18,18l144,0.1c9.9,0,18-8.1,18-18l0.1-144
		C180.1,8.2,172,0.1,162.1,0.1L162.1,0.1z"/>
	
		<linearGradient id="SVGID_2_" gradientUnits="userSpaceOnUse" x1="18.3488" y1="18.5616" x2="156.1266" y2="158.1171" gradientTransform="matrix(1 9.038675e-04 -9.038675e-04 1 4.462399e-03 0.4601)">
		<stop  offset="0" style="stop-color:#1F8ADB"/>
		<stop  offset="1" style="stop-color:#F52A8C"/>
	</linearGradient>
	<path class="st1" d="M102.5,65c2.3,0,4.2,1.9,4.2,4.2s-1.9,4.2-4.2,4.2l-33.3,0c-2.3,0-4.2-1.9-4.2-4.2c0-2.3,1.9-4.2,4.2-4.2
		L102.5,65z M134.6,138.8c-1.6,1.6-4.3,1.6-5.9,0l-10-10c-3,1.9-6.4,2.9-9.9,2.9c-10.4,0-18.7-8.4-18.7-18.8
		c0-10.4,8.4-18.7,18.8-18.7c10.4,0,18.7,8.4,18.7,18.8l0,0c0,3.5-1,7-2.9,9.9l10,10C136.2,134.6,136.2,137.2,134.6,138.8z
		 M108.7,123.4c5.8,0,10.4-4.7,10.4-10.4c0-5.8-4.7-10.4-10.4-10.4c-5.8,0-10.4,4.7-10.4,10.4C98.3,118.7,103,123.3,108.7,123.4z
		 M90,131.7l-25,0c-6.9,0-12.5-5.6-12.5-12.5l0.1-58.3c0-6.9,5.6-12.5,12.5-12.5l50,0c2.3,0,4.2,1.9,4.2,4.2l0,33.3
		c0,2.3,1.9,4.2,4.2,4.2c2.3,0,4.2-1.9,4.2-4.2l0-33.3c0-6.9-5.6-12.5-12.5-12.5l-50,0c-11.5,0-20.8,9.3-20.9,20.8l-0.1,58.3
		c0,11.5,9.3,20.8,20.8,20.9l25,0c2.3,0,4.2-1.9,4.2-4.2C94.1,133.5,92.3,131.7,90,131.7z"/>
</g>
</svg>
