<?xml version="1.0" encoding="utf-8"?>
<!-- Generator: Adobe Illustrator 24.1.1, SVG Export Plug-In . SVG Version: 6.00 Build 0)  -->
<svg version="1.1" id="Layer_1" xmlns="http://www.w3.org/2000/svg" xmlns:xlink="http://www.w3.org/1999/xlink" x="0px" y="0px"
	 viewBox="0 0 180 180" style="enable-background:new 0 0 180 180;" xml:space="preserve">
<style type="text/css">
	.st0{fill:url(#SVGID_1_);}
	.st1{fill:url(#SVGID_2_);}
</style>
<g>
	<linearGradient id="SVGID_1_" gradientUnits="userSpaceOnUse" x1="25.1674" y1="24.2793" x2="154.9452" y2="155.8349">
		<stop  offset="0" style="stop-color:#1F8ADB"/>
		<stop  offset="1" style="stop-color:#F52A8C"/>
	</linearGradient>
	<path class="st0" d="M162,10c4.4,0,8,3.6,8,8v144c0,4.4-3.6,8-8,8H18c-4.4,0-8-3.6-8-8V18c0-4.4,3.6-8,8-8H162 M162,0H18
		C8.1,0,0,8.1,0,18v144c0,9.9,8.1,18,18,18h144c9.9,0,18-8.1,18-18V18C180,8.1,171.9,0,162,0L162,0z"/>
	<linearGradient id="SVGID_2_" gradientUnits="userSpaceOnUse" x1="25.1674" y1="24.2793" x2="154.9452" y2="155.8349">
		<stop  offset="0" style="stop-color:#1F8ADB"/>
		<stop  offset="1" style="stop-color:#F52A8C"/>
	</linearGradient>
	<path class="st1" d="M121.8,40H58.2c-12.5,0-22.7,10.2-22.7,22.7v54.5c0,12.5,10.2,22.7,22.7,22.7h63.6c12.5,0,22.7-10.2,22.7-22.7
		V62.7C144.5,50.2,134.4,40,121.8,40z M58.2,49.1h63.6c7.5,0,13.6,6.1,13.6,13.6v4.5H44.5v-4.5C44.5,55.2,50.7,49.1,58.2,49.1z
		 M121.8,130.9H58.2c-7.5,0-13.6-6.1-13.6-13.6V76.4h90.9v40.9C135.5,124.8,129.3,130.9,121.8,130.9z M121.8,94.5
		c0,2.5-2,4.5-4.5,4.5H62.7c-2.5,0-4.5-2-4.5-4.5c0-2.5,2-4.5,4.5-4.5h54.5C119.8,90,121.8,92,121.8,94.5z M103.6,112.7
		c0,2.5-2,4.5-4.5,4.5H62.7c-2.5,0-4.5-2-4.5-4.5s2-4.5,4.5-4.5h36.4C101.6,108.2,103.6,110.2,103.6,112.7z M49.1,58.2
		c0-2.5,2-4.5,4.5-4.5s4.5,2,4.5,4.5c0,2.5-2,4.5-4.5,4.5S49.1,60.7,49.1,58.2z M62.7,58.2c0-2.5,2-4.5,4.5-4.5s4.5,2,4.5,4.5
		c0,2.5-2,4.5-4.5,4.5S62.7,60.7,62.7,58.2z M76.4,58.2c0-2.5,2-4.5,4.5-4.5c2.5,0,4.5,2,4.5,4.5c0,2.5-2,4.5-4.5,4.5
		C78.4,62.7,76.4,60.7,76.4,58.2z"/>
</g>
</svg>
