<?xml version="1.0" encoding="utf-8"?>
<!-- Generator: Adobe Illustrator 24.1.1, SVG Export Plug-In . SVG Version: 6.00 Build 0)  -->
<svg version="1.1" id="Layer_1" xmlns="http://www.w3.org/2000/svg" xmlns:xlink="http://www.w3.org/1999/xlink" x="0px" y="0px"
	 viewBox="0 0 180 180" style="enable-background:new 0 0 180 180;" xml:space="preserve">
<style type="text/css">
	.st0{fill:url(#SVGID_1_);}
	.st1{fill:url(#SVGID_2_);}
</style>
<g>
	<linearGradient id="SVGID_1_" gradientUnits="userSpaceOnUse" x1="20.0274" y1="18.149" x2="152.4719" y2="154.149">
		<stop  offset="0" style="stop-color:#1F8ADB"/>
		<stop  offset="1" style="stop-color:#F52A8C"/>
	</linearGradient>
	<path class="st0" d="M162,10c4.4,0,8,3.6,8,8v144c0,4.4-3.6,8-8,8H18c-4.4,0-8-3.6-8-8V18c0-4.4,3.6-8,8-8H162 M162,0H18
		C8.1,0,0,8.1,0,18v144c0,9.9,8.1,18,18,18h144c9.9,0,18-8.1,18-18V18C180,8.1,171.9,0,162,0L162,0z"/>
	<linearGradient id="SVGID_2_" gradientUnits="userSpaceOnUse" x1="20.0274" y1="18.149" x2="152.4719" y2="154.149">
		<stop  offset="0" style="stop-color:#1F8ADB"/>
		<stop  offset="1" style="stop-color:#F52A8C"/>
	</linearGradient>
	<path class="st1" d="M102.5,140h-25c-11.5,0-20.8-9.3-20.8-20.8V60.8C56.7,49.3,66,40,77.5,40h25c11.5,0,20.8,9.3,20.8,20.8v58.3
		C123.3,130.7,114,140,102.5,140z M77.5,48.3c-6.9,0-12.5,5.6-12.5,12.5v58.3c0,6.9,5.6,12.5,12.5,12.5h25c6.9,0,12.5-5.6,12.5-12.5
		V60.8c0-6.9-5.6-12.5-12.5-12.5H77.5z M98.3,119.2L98.3,119.2c0-2.3-1.9-4.2-4.2-4.2h-8.3c-2.3,0-4.2,1.9-4.2,4.2l0,0
		c0,2.3,1.9,4.2,4.2,4.2h8.3C96.5,123.3,98.3,121.5,98.3,119.2z"/>
</g>
</svg>
