<?xml version="1.0" encoding="utf-8"?>
<!-- Generator: Adobe Illustrator 24.1.1, SVG Export Plug-In . SVG Version: 6.00 Build 0)  -->
<svg version="1.1" id="Layer_1" xmlns="http://www.w3.org/2000/svg" xmlns:xlink="http://www.w3.org/1999/xlink" x="0px" y="0px"
	 viewBox="0 0 512 512" style="enable-background:new 0 0 512 512;" xml:space="preserve">
<style type="text/css">
	.st0{fill:url(#SVGID_1_);}
	.st1{fill:url(#SVGID_2_);}
</style>
<linearGradient id="SVGID_1_" gradientUnits="userSpaceOnUse" x1="73.7349" y1="66.2436" x2="456.3654" y2="438.7605">
	<stop  offset="0" style="stop-color:#1F8ADB"/>
	<stop  offset="1" style="stop-color:#F52A8C"/>
</linearGradient>
<path class="st0" d="M318.6,105.7c-6.9,0-12.5,5.6-12.5,12.5c0,36.9-32.4,50.1-62.6,50.1h-87.7c-27.7,0-50.1,22.4-50.1,50.1v25
	c0.1,15.2,7,29.5,19,38.9l44.7,99.8c6.5,14.6,21,24,37,24c20.6,0,37.3-16.7,37.3-37.4c0-5.2-1.1-10.4-3.3-15.2l-27.6-60.1h30.6
	c30.3,0,62.6,13.2,62.6,50.1c0,6.9,5.6,12.5,12.5,12.5c6.9,0,12.5-5.6,12.5-12.5V118.2C331.1,111.3,325.5,105.7,318.6,105.7
	L318.6,105.7z M217.6,363.9c2.8,6.2-0.1,13.5-6.3,16.2c-1.6,0.7-3.3,1.1-5,1.1c-6.1,0-11.6-3.6-14.1-9.2l-35.2-78.5h28.2
	L217.6,363.9z M306.1,288.6c-17.9-13.8-40-20.9-62.6-20h-87.7c-13.8,0-25-11.2-25-25v-25c0-13.8,11.2-25,25-25h87.7
	c22.6,0.9,44.7-6.2,62.6-20V288.6z M405,299.2c-3.1,6.2-10.6,8.7-16.8,5.6c0,0,0,0,0,0l-25-12.5c-6.2-3.1-8.7-10.6-5.6-16.8
	c3.1-6.2,10.6-8.7,16.8-5.6l25,12.5C405.6,285.5,408.1,293,405,299.2L405,299.2z M357.5,186.5c-3.1-6.2-0.6-13.7,5.6-16.8
	c0,0,0,0,0,0l25-12.5c6.2-3.1,13.7-0.6,16.8,5.6s0.6,13.7-5.6,16.8l0,0l-25,12.5C368.2,195.2,360.6,192.7,357.5,186.5
	C357.5,186.5,357.5,186.5,357.5,186.5z M356.2,231c0-6.9,5.6-12.5,12.5-12.5h25c6.9,0,12.5,5.6,12.5,12.5c0,6.9-5.6,12.5-12.5,12.5
	h-25C361.8,243.5,356.2,237.9,356.2,231z"/>
<linearGradient id="SVGID_2_" gradientUnits="userSpaceOnUse" x1="67.5827" y1="72.5629" x2="450.2131" y2="445.0797">
	<stop  offset="0" style="stop-color:#1F8ADB"/>
	<stop  offset="1" style="stop-color:#F52A8C"/>
</linearGradient>
<path class="st1" d="M460.8,28.4c12.5,0,22.8,10.2,22.8,22.8v409.6c0,12.5-10.2,22.8-22.8,22.8H51.2c-12.5,0-22.8-10.2-22.8-22.8
	V51.2c0-12.5,10.2-22.8,22.8-22.8H460.8 M460.8,0H51.2C23,0,0,23,0,51.2v409.6C0,489,23,512,51.2,512h409.6
	c28.2,0,51.2-23,51.2-51.2V51.2C512,23,489,0,460.8,0L460.8,0z"/>
</svg>
