<?xml version="1.0" encoding="utf-8"?>
<!-- Generator: Adobe Illustrator 24.1.1, SVG Export Plug-In . SVG Version: 6.00 Build 0)  -->
<svg version="1.1" id="Layer_1" xmlns="http://www.w3.org/2000/svg" xmlns:xlink="http://www.w3.org/1999/xlink" x="0px" y="0px"
	 viewBox="0 0 512 512" style="enable-background:new 0 0 512 512;" xml:space="preserve">
<style type="text/css">
	.st0{fill:url(#SVGID_1_);}
	.st1{fill:url(#SVGID_2_);}
</style>
<g>
	<linearGradient id="SVGID_1_" gradientUnits="userSpaceOnUse" x1="49.5672" y1="56.5061" x2="450.7393" y2="444.1934">
		<stop  offset="0" style="stop-color:#1F8ADB"/>
		<stop  offset="1" style="stop-color:#F52A8C"/>
	</linearGradient>
	<path class="st0" d="M460.8,28.4c12.5,0,22.8,10.2,22.8,22.8v409.6c0,12.5-10.2,22.8-22.8,22.8H51.2c-12.5,0-22.8-10.2-22.8-22.8
		V51.2c0-12.5,10.2-22.8,22.8-22.8H460.8 M460.8,0H51.2C23,0,0,23,0,51.2v409.6C0,489,23,512,51.2,512h409.6
		c28.2,0,51.2-23,51.2-51.2V51.2C512,23,489,0,460.8,0L460.8,0z"/>
	<linearGradient id="SVGID_2_" gradientUnits="userSpaceOnUse" x1="49.9764" y1="56.0827" x2="451.1484" y2="443.77">
		<stop  offset="0" style="stop-color:#1F8ADB"/>
		<stop  offset="1" style="stop-color:#F52A8C"/>
	</linearGradient>
	<path class="st1" d="M398.8,381.6L326,308.8c17.2-21,27.6-47.9,27.6-77.2c0-67.3-54.7-122-122-122s-122,54.7-122,122
		s54.7,122,122,122c29.3,0,56.1-10.4,77.2-27.6l72.8,72.8c2.4,2.4,5.5,3.6,8.6,3.6s6.2-1.2,8.6-3.6
		C403.6,394.1,403.6,386.4,398.8,381.6L398.8,381.6z M134,231.6c0-53.8,43.8-97.6,97.6-97.6s97.6,43.8,97.6,97.6
		s-43.8,97.6-97.6,97.6S134,285.4,134,231.6z M280.4,256c0,20.2-16.4,36.6-36.6,36.6v12.2c0,6.7-5.5,12.2-12.2,12.2
		s-12.2-5.5-12.2-12.2v-12.2h-3.3c-13,0-25.2-7-31.7-18.3c-3.4-5.8-1.4-13.3,4.5-16.7c5.8-3.4,13.3-1.4,16.7,4.4
		c2.2,3.8,6.2,6.1,10.6,6.1h27.7c6.7,0,12.2-5.5,12.2-12.2c0-4.6-3.3-8.5-7.9-9.3l-37.1-6.2c-16.4-2.7-28.2-16.8-28.2-33.3
		c0-20.2,16.4-36.6,36.6-36.6v-12.2c0-6.7,5.5-12.2,12.2-12.2s12.2,5.5,12.2,12.2v12.2h3.3c13,0,25.2,7,31.7,18.3
		c3.4,5.8,1.4,13.3-4.4,16.7c-5.9,3.4-13.3,1.4-16.7-4.4c-2.2-3.8-6.2-6.1-10.6-6.1h-27.7c-6.7,0-12.2,5.5-12.2,12.2
		c0,4.6,3.3,8.5,7.9,9.3l37.1,6.2C268.5,225.4,280.4,239.4,280.4,256L280.4,256z"/>
</g>
</svg>
