<?xml version="1.0" encoding="utf-8"?>
<!-- Generator: Adobe Illustrator 24.1.1, SVG Export Plug-In . SVG Version: 6.00 Build 0)  -->
<svg version="1.1" id="Layer_1" xmlns="http://www.w3.org/2000/svg" xmlns:xlink="http://www.w3.org/1999/xlink" x="0px" y="0px"
	 viewBox="0 0 512 512" style="enable-background:new 0 0 512 512;" xml:space="preserve">
<style type="text/css">
	.st0{fill:url(#SVGID_1_);}
	.st1{fill:url(#SVGID_2_);}
</style>
<g>
	<linearGradient id="SVGID_1_" gradientUnits="userSpaceOnUse" x1="61.1767" y1="52.8152" x2="453.9207" y2="462.4152">
		<stop  offset="0" style="stop-color:#1F8ADB"/>
		<stop  offset="1" style="stop-color:#F52A8C"/>
	</linearGradient>
	<path class="st0" d="M460.8,28.4c12.5,0,22.8,10.2,22.8,22.8v409.6c0,12.5-10.2,22.8-22.8,22.8H51.2c-12.5,0-22.8-10.2-22.8-22.8
		V51.2c0-12.5,10.2-22.8,22.8-22.8H460.8 M460.8,0H51.2C23,0,0,23,0,51.2v409.6C0,489,23,512,51.2,512h409.6
		c28.2,0,51.2-23,51.2-51.2V51.2C512,23,489,0,460.8,0L460.8,0z"/>
	<linearGradient id="SVGID_2_" gradientUnits="userSpaceOnUse" x1="61.1767" y1="52.8151" x2="453.9207" y2="462.4151">
		<stop  offset="0" style="stop-color:#1F8ADB"/>
		<stop  offset="1" style="stop-color:#F52A8C"/>
	</linearGradient>
	<path class="st1" d="M256,308.4c-28.9,0-52.4-23.5-52.4-52.4s23.5-52.4,52.4-52.4s52.4,23.5,52.4,52.4S284.9,308.4,256,308.4z
		 M256,229.8c-14.4,0-26.2,11.7-26.2,26.2c0,14.4,11.7,26.2,26.2,26.2s26.2-11.7,26.2-26.2C282.2,241.6,270.4,229.8,256,229.8z
		 M164.3,190.5c-7.2,0-13.1,5.9-13.1,13.1s5.9,13.1,13.1,13.1s13.1-5.9,13.1-13.1S171.5,190.5,164.3,190.5z M334.6,229.8
		c0,7.2,5.9,13.1,13.1,13.1c7.2,0,13.1-5.9,13.1-13.1s-5.9-13.1-13.1-13.1C340.4,216.7,334.6,222.6,334.6,229.8z M164.3,269.1
		c-7.2,0-13.1,5.9-13.1,13.1c0,7.2,5.9,13.1,13.1,13.1s13.1-5.9,13.1-13.1C177.4,275,171.5,269.1,164.3,269.1z M334.6,308.4
		c0,7.2,5.9,13.1,13.1,13.1c7.2,0,13.1-5.9,13.1-13.1c0-7.2-5.9-13.1-13.1-13.1C340.4,295.3,334.6,301.2,334.6,308.4z M321.5,373.9
		c-21.4,0-40.6-5.2-59.1-10.3c-17.7-4.8-34.3-9.4-52.2-9.4c-20.6,0-33.6,1.3-44.8,4.6c-15.8,4.5-32.4,1.5-45.6-8.4
		c-13.3-10-21-25.3-21-42v-98.9c0-27,17-51.7,42.3-61.3c17.6-6.7,34.2-10.1,49.4-10.1c21.4,0,40.6,5.2,59.1,10.3
		c17.7,4.8,34.3,9.4,52.2,9.4c20.6,0,33.6-1.3,44.8-4.6c15.8-4.5,32.4-1.5,45.6,8.4c13.3,10,21,25.3,21,42v98.9l0,0
		c0,27-17,51.7-42.4,61.3C353.3,370.5,336.7,373.9,321.5,373.9L321.5,373.9z M210.1,328c21.4,0,40.6,5.2,59.1,10.3
		c17.7,4.8,34.3,9.4,52.2,9.4c12,0,25.4-2.8,40-8.4C377,333.4,387,319,387,302.5v-98.9c0-8.3-3.8-16-10.5-21
		c-6.5-4.9-14.7-6.5-22.6-4.2c-13.8,4-28.8,5.6-52.1,5.6c-21.4,0-40.6-5.2-59.1-10.3c-17.7-4.8-34.3-9.4-52.2-9.4
		c-12,0-25.4,2.8-40,8.4C135,178.6,125,193,125,209.5v98.9c0,8.3,3.8,16,10.5,21c6.5,4.9,14.7,6.5,22.6,4.2
		C171.8,329.7,186.9,328,210.1,328L210.1,328z"/>
</g>
</svg>
