<?xml version="1.0" encoding="utf-8"?>
<!-- Generator: Adobe Illustrator 24.1.1, SVG Export Plug-In . SVG Version: 6.00 Build 0)  -->
<svg version="1.1" id="Layer_1" xmlns="http://www.w3.org/2000/svg" xmlns:xlink="http://www.w3.org/1999/xlink" x="0px" y="0px"
	 viewBox="0 0 512 512" style="enable-background:new 0 0 512 512;" xml:space="preserve">
<style type="text/css">
	.st0{fill:url(#SVGID_1_);}
	.st1{fill:url(#SVGID_2_);}
</style>
<g>
	<linearGradient id="SVGID_1_" gradientUnits="userSpaceOnUse" x1="80.696" y1="88.0291" x2="432.9857" y2="482.4587">
		<stop  offset="0" style="stop-color:#1F8ADB"/>
		<stop  offset="1" style="stop-color:#F52A8C"/>
	</linearGradient>
	<path class="st0" d="M337.9,326.1h-3.7c-14.8-37.7-25-77-30.6-117h10.9c6.5,0,11.7-5.2,11.7-11.7s-5.2-11.7-11.7-11.7H309
		c0,0,15-25.9,15.1-26.3c5.1-11.5,0-24.9-11.5-30c-7.2-3.2-15.5-2.5-22.1,1.9l-7.9,4.3c0,0-9.6-12.7-9.9-13.1
		c-9.3-9.1-24.2-9.1-33.5,0c-0.3,0.4-9.9,13-9.9,13l-7.9-4.2c-10.4-7.1-24.5-4.4-31.6,6c-4.4,6.5-5.2,14.9-1.9,22.1
		c0.2,0.4,15.1,26.3,15.1,26.3h-5.5c-6.5,0-11.7,5.2-11.7,11.7s5.2,11.7,11.7,11.7h10.9c-5.6,40.1-15.8,79.4-30.6,117h-3.7
		c-19.4,0-35.1,15.7-35.1,35.1c0,19.4,15.7,35.1,35.1,35.1h163.8c19.4,0,35.1-15.7,35.1-35.1C373,341.8,357.3,326.1,337.9,326.1z
		 M227,160.9c5.1,2.7,11.4,1.3,14.9-3.3l14-18.6l14,18.6c3.5,4.6,9.8,6,14.9,3.2l16.5-8.9l-19.5,33.7h-51.8L210.5,152L227,160.9z
		 M231.9,209.1h48.2c5,40,14.8,79.3,29.1,117H202.7C217.1,288.4,226.9,249.1,231.9,209.1z M337.9,372.9H174.1
		c-6.5,0-11.7-5.2-11.7-11.7c0-6.5,5.2-11.7,11.7-11.7h163.8c6.5,0,11.7,5.2,11.7,11.7C349.6,367.7,344.4,372.9,337.9,372.9z"/>
	<linearGradient id="SVGID_2_" gradientUnits="userSpaceOnUse" x1="94.7573" y1="75.47" x2="447.0471" y2="469.8996">
		<stop  offset="0" style="stop-color:#1F8ADB"/>
		<stop  offset="1" style="stop-color:#F52A8C"/>
	</linearGradient>
	<path class="st1" d="M460.8,28.4c12.5,0,22.8,10.2,22.8,22.8v409.6c0,12.5-10.2,22.8-22.8,22.8H51.2c-12.5,0-22.8-10.2-22.8-22.8
		V51.2c0-12.5,10.2-22.8,22.8-22.8H460.8 M460.8,0H51.2C23,0,0,23,0,51.2v409.6C0,489,23,512,51.2,512h409.6
		c28.2,0,51.2-23,51.2-51.2V51.2C512,23,489,0,460.8,0L460.8,0z"/>
</g>
</svg>
