<?xml version="1.0" encoding="utf-8"?>
<!-- Generator: Adobe Illustrator 24.1.1, SVG Export Plug-In . SVG Version: 6.00 Build 0)  -->
<svg version="1.1" id="Layer_1" xmlns="http://www.w3.org/2000/svg" xmlns:xlink="http://www.w3.org/1999/xlink" x="0px" y="0px"
	 viewBox="0 0 512 512" style="enable-background:new 0 0 512 512;" xml:space="preserve">
<style type="text/css">
	.st0{fill:url(#SVGID_1_);}
	.st1{fill:url(#SVGID_2_);}
</style>
<g>
	<linearGradient id="SVGID_1_" gradientUnits="userSpaceOnUse" x1="54.647" y1="52.1406" x2="460.8759" y2="463.4262">
		<stop  offset="0" style="stop-color:#1F8ADB"/>
		<stop  offset="1" style="stop-color:#F52A8C"/>
	</linearGradient>
	<path class="st0" d="M460.8,28.4c12.5,0,22.8,10.2,22.8,22.8v409.6c0,12.5-10.2,22.8-22.8,22.8H51.2c-12.5,0-22.8-10.2-22.8-22.8
		V51.2c0-12.5,10.2-22.8,22.8-22.8H460.8 M460.8,0H51.2C23,0,0,23,0,51.2v409.6C0,489,23,512,51.2,512h409.6
		c28.2,0,51.2-23,51.2-51.2V51.2C512,23,489,0,460.8,0L460.8,0z"/>
	<linearGradient id="SVGID_2_" gradientUnits="userSpaceOnUse" x1="64.789" y1="42.1233" x2="471.0179" y2="453.409">
		<stop  offset="0" style="stop-color:#1F8ADB"/>
		<stop  offset="1" style="stop-color:#F52A8C"/>
	</linearGradient>
	<path class="st1" d="M395,256c0,76.7-62.4,139.1-139.1,139.1S116.7,332.7,116.7,256s62.4-139.1,139.1-139.1c8.5,0,17,0.8,25.3,2.3
		c6.3,1.2,10.4,7.2,9.3,13.4s-7.2,10.4-13.4,9.3c-6.8-1.3-14-1.9-21.1-1.9c-63.9,0-115.9,52.1-115.9,115.9S192,371.9,255.9,371.9
		S371.8,319.9,371.8,256c0-7.1-0.7-14.1-1.9-21.1c-1.2-6.3,3-12.3,9.3-13.4c6.4-1.2,12.3,3,13.4,9.3C394.2,239,395,247.5,395,256
		L395,256z M265.8,187.1c6.4,0.9,12.2-3.5,13.1-9.9c0.9-6.4-3.5-12.2-9.9-13.1c-4.4-0.6-8.8-0.9-13.2-0.9
		c-51.1,0-92.7,41.6-92.7,92.7s41.6,92.7,92.7,92.7s92.7-41.6,92.7-92.7c0-4.4-0.3-8.8-0.9-13.2c-0.9-6.4-6.7-10.8-13.1-9.9
		s-10.8,6.7-9.9,13.1c0.5,3.2,0.7,6.6,0.7,10c0,38.4-31.2,69.6-69.6,69.6s-69.6-31.2-69.6-69.6s31.2-69.6,69.6-69.6
		C259.2,186.4,262.6,186.7,265.8,187.1z M240.4,238.7c4.8-4.3,5.2-11.6,0.9-16.3s-11.6-5.2-16.3-0.9c-9.9,8.8-15.4,21.4-15.4,34.5
		c0,25.6,20.8,46.4,46.4,46.4c13.2,0,25.7-5.7,34.5-15.4c4.3-4.8,3.8-12.1-0.9-16.3c-4.8-4.3-12.1-3.8-16.3,0.9
		c-4.4,4.9-10.7,7.8-17.3,7.8c-12.8,0-23.2-10.4-23.2-23.2c0-6.6,2.8-12.9,7.8-17.3L240.4,238.7z M259.3,236.2
		c-4.5,4.5-4.5,11.8,0,16.3c2.3,2.3,5.2,3.4,8.2,3.4s5.9-1.2,8.2-3.4l54.6-54.6h30c3.1,0,6-1.3,8.2-3.4l23.2-23.2
		c3.4-3.4,4.3-8.3,2.6-12.6c-1.7-4.3-6-7.2-10.7-7.2h-23.2v-23.1c0-4.6-2.8-8.9-7.2-10.7c-4.4-1.9-9.3-0.8-12.6,2.6l-23.2,23.2
		c-2.2,2.2-3.4,5.1-3.4,8.2v30l-54.6,54.6L259.3,236.2z"/>
</g>
</svg>
