<?xml version="1.0" encoding="utf-8"?>
<!-- Generator: Adobe Illustrator 24.1.1, SVG Export Plug-In . SVG Version: 6.00 Build 0)  -->
<svg version="1.1" id="Layer_1" xmlns="http://www.w3.org/2000/svg" xmlns:xlink="http://www.w3.org/1999/xlink" x="0px" y="0px"
	 viewBox="0 0 512 512" style="enable-background:new 0 0 512 512;" xml:space="preserve">
<style type="text/css">
	.st0{fill:url(#SVGID_1_);}
	.st1{fill:url(#SVGID_2_);}
</style>
<g>
	<linearGradient id="SVGID_1_" gradientUnits="userSpaceOnUse" x1="56.6871" y1="56.6871" x2="451.1169" y2="451.1169">
		<stop  offset="0" style="stop-color:#1F8ADB"/>
		<stop  offset="1" style="stop-color:#F52A8C"/>
	</linearGradient>
	<path class="st0" d="M460.8,28.4c12.5,0,22.8,10.2,22.8,22.8v409.6c0,12.5-10.2,22.8-22.8,22.8H51.2c-12.5,0-22.8-10.2-22.8-22.8
		V51.2c0-12.5,10.2-22.8,22.8-22.8H460.8 M460.8,0H51.2C23,0,0,23,0,51.2v409.6C0,489,23,512,51.2,512h409.6
		c28.2,0,51.2-23,51.2-51.2V51.2C512,23,489,0,460.8,0L460.8,0z"/>
	<linearGradient id="SVGID_2_" gradientUnits="userSpaceOnUse" x1="56.6864" y1="56.6879" x2="451.1161" y2="451.1176">
		<stop  offset="0" style="stop-color:#1F8ADB"/>
		<stop  offset="1" style="stop-color:#F52A8C"/>
	</linearGradient>
	<path class="st1" d="M389.9,211.3l-89.2-89.2c-24.6-24.6-64.7-24.6-89.3,0l-89.2,89.2c-24.6,24.6-24.6,64.7,0,89.3l89.2,89.2
		c12.3,12.3,28.5,18.5,44.7,18.5s32.4-6.1,44.7-18.5l89.2-89.2C414.5,276,414.5,236,389.9,211.3L389.9,211.3z M371.9,282.7
		l-89.2,89.2c-14.7,14.7-38.7,14.7-53.4,0l-89.2-89.2c-14.7-14.7-14.7-38.7,0-53.4l89.2-89.2c14.7-14.7,38.7-14.7,53.4,0l89.2,89.2
		C386.6,244,386.6,268,371.9,282.7z M321.1,216.4c14.9,14.9,14.9,39,0,53.9L290.4,301c-2.5,2.5-5.7,3.7-9,3.7s-6.5-1.2-9-3.7
		c-5-5-5-13,0-18l27-27h-56.1c-7,0-12.7,5.7-12.7,12.7v38.1c0,7-5.7,12.7-12.7,12.7s-12.7-5.7-12.7-12.7v-38.1
		c0-21,17.1-38.1,38.1-38.1h56.1l-27-27c-5-5-5-13,0-18c5-5,13-5,18,0L321.1,216.4z"/>
</g>
</svg>
