<?xml version="1.0" encoding="utf-8"?>
<!-- Generator: Adobe Illustrator 24.1.1, SVG Export Plug-In . SVG Version: 6.00 Build 0)  -->
<svg version="1.1" id="Layer_1" xmlns="http://www.w3.org/2000/svg" xmlns:xlink="http://www.w3.org/1999/xlink" x="0px" y="0px"
	 viewBox="0 0 512 512" style="enable-background:new 0 0 512 512;" xml:space="preserve">
<style type="text/css">
	.st0{fill:url(#SVGID_1_);}
	.st1{fill:url(#SVGID_2_);}
</style>
<g>
	<linearGradient id="SVGID_1_" gradientUnits="userSpaceOnUse" x1="46.8648" y1="44.9462" x2="460.2574" y2="462.1313">
		<stop  offset="0" style="stop-color:#1F8ADB"/>
		<stop  offset="1" style="stop-color:#F52A8C"/>
	</linearGradient>
	<path class="st0" d="M460.8,28.4c12.5,0,22.8,10.2,22.8,22.8v409.6c0,12.5-10.2,22.8-22.8,22.8H51.2c-12.5,0-22.8-10.2-22.8-22.8
		V51.2c0-12.5,10.2-22.8,22.8-22.8H460.8 M460.8,0H51.2C23,0,0,23,0,51.2v409.6C0,489,23,512,51.2,512h409.6
		c28.2,0,51.2-23,51.2-51.2V51.2C512,23,489,0,460.8,0L460.8,0z"/>
	<linearGradient id="SVGID_2_" gradientUnits="userSpaceOnUse" x1="31.6556" y1="60.0171" x2="445.0482" y2="477.2023">
		<stop  offset="0" style="stop-color:#1F8ADB"/>
		<stop  offset="1" style="stop-color:#F52A8C"/>
	</linearGradient>
	<path class="st1" d="M402,389.8c0,6.7-5.5,12.2-12.2,12.2H146.5c-20.1,0-36.5-16.4-36.5-36.5V122.2c0-6.7,5.5-12.2,12.2-12.2
		c6.7,0,12.2,5.5,12.2,12.2v243.4c0,6.7,5.5,12.2,12.2,12.2h243.4C396.6,377.7,402,383.1,402,389.8z M365.5,170.8h-48.7
		c-6.7,0-12.2,5.5-12.2,12.2c0,6.7,5.5,12.2,12.2,12.2h43.4l-59.1,57.3c-4.6,4.6-12.6,4.6-17.2,0c-0.5-0.5-15.1-10.9-15.1-10.9
		c-13.8-13.1-37.4-12.6-50.6,0.6l-55.8,53.7c-4.8,4.7-5,12.4-0.3,17.2c2.4,2.5,5.6,3.7,8.8,3.7c3,0,6.1-1.1,8.4-3.4l56-53.9
		c4.6-4.6,12.6-4.6,17.2,0c0.5,0.5,15.1,10.9,15.1,10.9c13.9,13.1,37.4,12.6,50.7-0.7l59.5-57.7V256c0,6.7,5.5,12.2,12.2,12.2
		c6.7,0,12.2-5.5,12.2-12.2v-48.7C402,187.2,385.6,170.8,365.5,170.8L365.5,170.8z"/>
</g>
</svg>
