<?xml version="1.0" encoding="utf-8"?>
<!-- Generator: Adobe Illustrator 24.1.1, SVG Export Plug-In . SVG Version: 6.00 Build 0)  -->
<svg version="1.1" id="Layer_1" xmlns="http://www.w3.org/2000/svg" xmlns:xlink="http://www.w3.org/1999/xlink" x="0px" y="0px"
	 viewBox="0 0 512 512" style="enable-background:new 0 0 512 512;" xml:space="preserve">
<style type="text/css">
	.st0{fill:url(#SVGID_1_);}
	.st1{fill:url(#SVGID_2_);}
</style>
<g>
	<linearGradient id="SVGID_1_" gradientUnits="userSpaceOnUse" x1="45.1264" y1="41.2572" x2="458.5191" y2="462.235">
		<stop  offset="0" style="stop-color:#1F8ADB"/>
		<stop  offset="1" style="stop-color:#F52A8C"/>
	</linearGradient>
	<path class="st0" d="M460.8,28.4c12.5,0,22.8,10.2,22.8,22.8v409.6c0,12.5-10.2,22.8-22.8,22.8H51.2c-12.5,0-22.8-10.2-22.8-22.8
		V51.2c0-12.5,10.2-22.8,22.8-22.8H460.8 M460.8,0H51.2C23,0,0,23,0,51.2v409.6C0,489,23,512,51.2,512h409.6
		c28.2,0,51.2-23,51.2-51.2V51.2C512,23,489,0,460.8,0L460.8,0z"/>
	<linearGradient id="SVGID_2_" gradientUnits="userSpaceOnUse" x1="44.7367" y1="41.6399" x2="458.1294" y2="462.6178">
		<stop  offset="0" style="stop-color:#1F8ADB"/>
		<stop  offset="1" style="stop-color:#F52A8C"/>
	</linearGradient>
	<path class="st1" d="M238.2,197.7c4.9,4.9,11.4,7.4,17.9,7.4c6.5,0,13-2.5,17.9-7.4l25.2-25.2c9.9-9.9,9.9-26,0-35.9l-25.2-25.2
		c-9.9-9.9-26-9.9-35.9,0L213,136.6c-9.9,9.9-9.9,26,0,35.9L238.2,197.7L238.2,197.7z M256.1,129.3l25.2,25.2l-25.2,25.2l-25.2-25.2
		L256.1,129.3L256.1,129.3z M408.2,179.7v128.1c0,27.1-10.6,52.6-29.7,71.7l-24.7,24.7c-2.5,2.5-5.7,3.7-9,3.7s-6.5-1.2-9-3.7
		c-5-5-5-13,0-17.9l24.7-24.7c14.4-14.4,22.3-33.5,22.3-53.8V179.7c0-7-5.7-12.7-12.7-12.7c-7,0-12.7,5.7-12.7,12.7
		c0,0-0.2,102-0.2,102.3c-0.2,8.4-3,16.8-8.7,23.5l-32.7,34c-2.5,2.6-5.8,3.9-9.1,3.9c-3.2,0-6.3-1.2-8.8-3.5
		c-5-4.9-5.2-12.9-0.3-17.9l32.1-33.4c1.6-2,2.4-4.7,2.4-7.4c0,0,0,0,0,0v-0.6c-0.2-2.8-1.2-5.6-3.2-7.9c-2.2-2.5-5.3-4-8.7-4.2
		c-3.3-0.3-6.6,1-9.1,3.2l-40.1,36.9c6.7,12.7,10.4,26.9,10.4,41.5v45.1c0,7-5.7,12.7-12.7,12.7s-12.7-5.7-12.7-12.7v-45.1
		c0-17.7-7.5-34.7-20.5-46.7l-34.7-31.9c-2.4-2.1-5.7-3.3-9-3.1c-3.4,0.2-6.5,1.7-8.7,4.2c-4.2,4.7-4.3,11.8-0.3,16.5l32.6,33.9
		c4.9,5,4.7,13.1-0.3,17.9c-5.1,4.9-13.1,4.7-17.9-0.3L164,306.2c-5.8-6.9-9.1-15.2-9.5-23.5c-0.1-0.5,0-102.9,0-102.9
		c0-7-5.7-12.7-12.7-12.7s-12.7,5.7-12.7,12.7v128.1c0,20.3,7.9,39.4,22.3,53.8l24.7,24.7c5,4.9,5,13,0,17.9c-2.5,2.5-5.7,3.7-9,3.7
		c-3.2,0-6.5-1.2-9-3.7l-24.7-24.7c-19.2-19.2-29.7-44.6-29.7-71.7V179.7c0-21,17.1-38,38-38s38,17.1,38,38v65.7
		c3.4-1.2,6.9-2.1,10.6-2.3c10-0.5,19.9,2.9,27.4,9.6c0,0,36.9,34.2,37.9,35.2L294,253c7.7-6.9,17.5-10.3,27.6-9.8
		c3.7,0.2,7.2,1.1,10.6,2.3v-65.7c0-21,17.1-38,38-38C391.1,141.7,408.2,158.8,408.2,179.7L408.2,179.7z"/>
</g>
</svg>
