<?xml version="1.0" encoding="utf-8"?>
<!-- Generator: Adobe Illustrator 24.1.1, SVG Export Plug-In . SVG Version: 6.00 Build 0)  -->
<svg version="1.1" id="Layer_1" xmlns="http://www.w3.org/2000/svg" xmlns:xlink="http://www.w3.org/1999/xlink" x="0px" y="0px"
	 viewBox="0 0 180 180" style="enable-background:new 0 0 180 180;" xml:space="preserve">
<style type="text/css">
	.st0{fill:url(#SVGID_1_);}
	.st1{fill:url(#SVGID_2_);}
</style>
<g>
	<g>
		<linearGradient id="SVGID_1_" gradientUnits="userSpaceOnUse" x1="18.3991" y1="16.2731" x2="160.6213" y2="155.5323">
			<stop  offset="0" style="stop-color:#1F8ADB"/>
			<stop  offset="1" style="stop-color:#F52A8C"/>
		</linearGradient>
		<path class="st0" d="M131.5,40.2h-20.8c-4.6,0-8.3,3.7-8.3,8.3v28.9c0,4.7,3.8,8.5,8.5,8.5c1.9,0,3.8-0.7,5.3-1.9l4.9-3.9L126,84
			c3.7,2.9,9,2.3,12-1.3c1.2-1.5,1.9-3.4,1.9-5.3V48.5C139.8,43.9,136.1,40.2,131.5,40.2z M131.2,77.5l-7.5-6
			c-1.5-1.2-3.7-1.2-5.2,0l-7.8,5.8V48.5h20.8L131.2,77.5z M139.8,98.3v20.8c0,11.5-9.3,20.8-20.8,20.8H60.9
			c-11.5,0-20.8-9.3-20.8-20.8V73.4c0-11.5,9.3-20.8,20.8-20.8H90c2.3,0,4.2,1.9,4.2,4.2c0,2.3-1.9,4.2-4.2,4.2H60.9
			c-4.6,0-8.8,2.6-11,6.6l31.2,31.2c4.9,4.7,12.7,4.7,17.6,0l3.6-3.5c1.6-1.6,4.3-1.6,5.9,0.1c1.6,1.6,1.6,4.3-0.1,5.9l-3.5,3.4
			c-8.1,8-21.2,8-29.3,0L48.5,77.8v41.2c0,6.9,5.6,12.5,12.5,12.5h58.1c6.9,0,12.5-5.6,12.5-12.5V98.3c0-2.3,1.9-4.2,4.2-4.2
			C138,94.2,139.8,96,139.8,98.3z"/>
	</g>
	<linearGradient id="SVGID_2_" gradientUnits="userSpaceOnUse" x1="16.5906" y1="18.12" x2="158.8129" y2="157.3793">
		<stop  offset="0" style="stop-color:#1F8ADB"/>
		<stop  offset="1" style="stop-color:#F52A8C"/>
	</linearGradient>
	<path class="st1" d="M162,10c4.4,0,8,3.6,8,8v144c0,4.4-3.6,8-8,8H18c-4.4,0-8-3.6-8-8V18c0-4.4,3.6-8,8-8H162 M162,0H18
		C8.1,0,0,8.1,0,18v144c0,9.9,8.1,18,18,18h144c9.9,0,18-8.1,18-18V18C180,8.1,171.9,0,162,0L162,0z"/>
</g>
</svg>
