<?xml version="1.0" encoding="utf-8"?>
<!-- Generator: Adobe Illustrator 24.1.1, SVG Export Plug-In . SVG Version: 6.00 Build 0)  -->
<svg version="1.1" id="Layer_1" xmlns="http://www.w3.org/2000/svg" xmlns:xlink="http://www.w3.org/1999/xlink" x="0px" y="0px"
	 viewBox="0 0 180 180" style="enable-background:new 0 0 180 180;" xml:space="preserve">
<style type="text/css">
	.st0{fill:url(#SVGID_1_);}
	.st1{fill:url(#SVGID_2_);}
</style>
<g>
	<linearGradient id="SVGID_1_" gradientUnits="userSpaceOnUse" x1="21.5328" y1="22.9533" x2="164.3476" y2="162.8052">
		<stop  offset="0" style="stop-color:#1F8ADB"/>
		<stop  offset="1" style="stop-color:#F52A8C"/>
	</linearGradient>
	<path class="st0" d="M162,10c4.4,0,8,3.6,8,8v144c0,4.4-3.6,8-8,8H18c-4.4,0-8-3.6-8-8V18c0-4.4,3.6-8,8-8H162 M162,0H18
		C8.1,0,0,8.1,0,18v144c0,9.9,8.1,18,18,18h144c9.9,0,18-8.1,18-18V18C180,8.1,171.9,0,162,0L162,0z"/>
	<linearGradient id="SVGID_2_" gradientUnits="userSpaceOnUse" x1="13.7854" y1="30.8649" x2="156.6002" y2="170.7168">
		<stop  offset="0" style="stop-color:#1F8ADB"/>
		<stop  offset="1" style="stop-color:#F52A8C"/>
	</linearGradient>
	<path class="st1" d="M127.5,107.2v-4.7c0-6.9-5.6-12.5-12.5-12.5H94.2v-8.8c11.3-2.3,18.6-13.3,16.3-24.6
		c-2.3-11.3-13.3-18.6-24.6-16.3C74.6,42.7,67.3,53.7,69.6,65c1.7,8.2,8.1,14.6,16.3,16.3V90H65c-6.9,0-12.5,5.6-12.5,12.5v4.7
		c-8.9,2.3-14.3,11.4-12,20.3c2.3,8.9,11.4,14.3,20.3,12c8.9-2.3,14.3-11.4,12-20.3c-1.5-5.9-6.1-10.5-12-12v-4.7
		c0-2.3,1.9-4.2,4.2-4.2h20.8v8.9c-8.9,2.3-14.3,11.4-12,20.3c2.3,8.9,11.4,14.3,20.3,12c8.9-2.3,14.3-11.4,12-20.3
		c-1.5-5.9-6.1-10.5-12-12v-8.9H115c2.3,0,4.2,1.9,4.2,4.2v4.7c-8.9,2.3-14.3,11.4-12,20.3c2.3,8.9,11.4,14.3,20.3,12
		c8.9-2.3,14.3-11.4,12-20.3C138,113.3,133.4,108.7,127.5,107.2z M77.5,60.8c0-6.9,5.6-12.5,12.5-12.5s12.5,5.6,12.5,12.5
		S96.9,73.3,90,73.3S77.5,67.7,77.5,60.8z M65,123.4c0,4.6-3.7,8.3-8.3,8.3s-8.3-3.7-8.3-8.3s3.7-8.3,8.3-8.3S65,118.7,65,123.4z
		 M98.3,123.4c0,4.6-3.7,8.3-8.3,8.3s-8.3-3.7-8.3-8.3s3.7-8.3,8.3-8.3S98.3,118.7,98.3,123.4z M123.4,131.7c-4.6,0-8.3-3.7-8.3-8.3
		s3.7-8.3,8.3-8.3s8.3,3.7,8.3,8.3S128,131.7,123.4,131.7z"/>
</g>
</svg>
