<?xml version="1.0" encoding="utf-8"?>
<!-- Generator: Adobe Illustrator 24.1.1, SVG Export Plug-In . SVG Version: 6.00 Build 0)  -->
<svg version="1.1" id="Layer_1" xmlns="http://www.w3.org/2000/svg" xmlns:xlink="http://www.w3.org/1999/xlink" x="0px" y="0px"
	 viewBox="0 0 180 180" style="enable-background:new 0 0 180 180;" xml:space="preserve">
<style type="text/css">
	.st0{fill:url(#SVGID_1_);}
	.st1{fill:url(#SVGID_2_);}
</style>
<g>
	<linearGradient id="SVGID_1_" gradientUnits="userSpaceOnUse" x1="17.0178" y1="30.9993" x2="155.6845" y2="164.3326">
		<stop  offset="0" style="stop-color:#1F8ADB"/>
		<stop  offset="1" style="stop-color:#F52A8C"/>
	</linearGradient>
	<path class="st0" d="M132.9,142.5c0,2.6-2.1,4.8-4.8,4.8c-2.6,0-4.8-2.1-4.8-4.8c0-10.5-8.6-19.1-19.1-19.1H75.7
		c-10.5,0-19.1,8.6-19.1,19.1c0,2.6-2.1,4.8-4.8,4.8c-2.6,0-4.8-2.1-4.8-4.8c0-15.8,12.8-28.6,28.6-28.6h28.6
		C120.1,113.8,132.9,126.7,132.9,142.5z M137.7,68.5v9.5c0,3.9-3.2,7.2-7.2,7.2h-2.4c0,10.5-8.6,19.1-19.1,19.1H70.9
		c-10.5,0-19.1-8.6-19.1-19.1h-2.4c-3.9,0-7.2-3.2-7.2-7.2v-9.5c0-3.9,3.2-7.2,7.2-7.2h2.4c0-10.5,8.6-19.1,19.1-19.1h14.3v-4.8
		c0-2.6,2.1-4.8,4.8-4.8s4.8,2.1,4.8,4.8v4.8h14.3c10.5,0,19.1,8.6,19.1,19.1h2.4C134.5,61.4,137.7,64.6,137.7,68.5z M118.6,61.4
		c0-5.3-4.3-9.5-9.5-9.5H70.9c-5.3,0-9.5,4.3-9.5,9.5v23.8c0,5.3,4.3,9.5,9.5,9.5h38.1c5.3,0,9.5-4.3,9.5-9.5V61.4z M78.1,66.2
		c-3.9,0-7.2,3.2-7.2,7.2s3.2,7.2,7.2,7.2s7.2-3.2,7.2-7.2S82,66.2,78.1,66.2z M101.9,66.2c-3.9,0-7.2,3.2-7.2,7.2s3.2,7.2,7.2,7.2
		s7.2-3.2,7.2-7.2S105.9,66.2,101.9,66.2z"/>
	<linearGradient id="SVGID_2_" gradientUnits="userSpaceOnUse" x1="22.6007" y1="25.193" x2="161.2674" y2="158.5264">
		<stop  offset="0" style="stop-color:#1F8ADB"/>
		<stop  offset="1" style="stop-color:#F52A8C"/>
	</linearGradient>
	<path class="st1" d="M162,10c4.4,0,8,3.6,8,8v144c0,4.4-3.6,8-8,8H18c-4.4,0-8-3.6-8-8V18c0-4.4,3.6-8,8-8H162 M162,0H18
		C8.1,0,0,8.1,0,18v144c0,9.9,8.1,18,18,18h144c9.9,0,18-8.1,18-18V18C180,8.1,171.9,0,162,0L162,0z"/>
</g>
</svg>
