<?xml version="1.0" encoding="utf-8"?>
<!-- Generator: Adobe Illustrator 24.1.1, SVG Export Plug-In . SVG Version: 6.00 Build 0)  -->
<svg version="1.1" id="Layer_1" xmlns="http://www.w3.org/2000/svg" xmlns:xlink="http://www.w3.org/1999/xlink" x="0px" y="0px"
	 viewBox="0 0 180 180" style="enable-background:new 0 0 180 180;" xml:space="preserve">
<style type="text/css">
	.st0{fill:url(#SVGID_1_);}
	.st1{fill:url(#SVGID_2_);}
</style>
<g>
	<linearGradient id="SVGID_1_" gradientUnits="userSpaceOnUse" x1="17.8286" y1="21.9138" x2="159.1619" y2="155.2471">
		<stop  offset="0" style="stop-color:#1F8ADB"/>
		<stop  offset="1" style="stop-color:#F52A8C"/>
	</linearGradient>
	<path class="st0" d="M162,10c4.4,0,8,3.6,8,8v144c0,4.4-3.6,8-8,8H18c-4.4,0-8-3.6-8-8V18c0-4.4,3.6-8,8-8H162 M162,0H18
		C8.1,0,0,8.1,0,18v144c0,9.9,8.1,18,18,18h144c9.9,0,18-8.1,18-18V18C180,8.1,171.9,0,162,0L162,0z"/>
	<linearGradient id="SVGID_2_" gradientUnits="userSpaceOnUse" x1="15.5308" y1="24.3494" x2="156.8641" y2="157.6827">
		<stop  offset="0" style="stop-color:#1F8ADB"/>
		<stop  offset="1" style="stop-color:#F52A8C"/>
	</linearGradient>
	<path class="st1" d="M144.9,87.4c-3.9-30.4-31.7-51.8-62.1-47.8c-27.6,3.6-48.3,27.2-48.3,55c-0.1,15.2,6.2,29.8,17.4,40.2
		c4.2,3.9,9.8,6,15.5,5.9h45.1c6.1,0,11.9-2.4,16.2-6.6C141.2,122.1,147.2,104.7,144.9,87.4z M122.3,127.6c-2.6,2.6-6.1,4-9.7,4
		H67.4c-3.4,0.1-6.6-1.2-9.1-3.4c-9.3-8.7-14.5-20.8-14.5-33.5c0-13.1,5.6-25.7,15.4-34.4c8.4-7.6,19.4-11.8,30.7-11.7
		c1.8,0,3.6,0.1,5.4,0.3c25.3,2.9,43.5,25.8,40.5,51.2C134.6,110.5,129.8,120.2,122.3,127.6L122.3,127.6z M70.6,114.4
		c1.8,1.8,1.9,4.7,0.1,6.5c-1.8,1.8-4.7,1.9-6.5,0.1c-14.6-14.3-14.8-37.7-0.5-52.2c6.9-7.1,16.4-11.1,26.4-11.1
		c1.8,0,3.5,0.1,5.3,0.4c2.5,0.4,4.3,2.7,3.9,5.2c0,0,0,0,0,0c-0.3,2.5-2.6,4.3-5.1,3.9c0,0-0.1,0-0.1,0
		c-15.1-2.2-29.2,8.4-31.3,23.5C61.4,99.5,64.3,108.3,70.6,114.4L70.6,114.4z M126.6,89.4c0.2,1.7,0.4,3.5,0.4,5.3
		c0,9.9-4,19.5-11.1,26.4c-1.8,1.8-4.8,1.8-6.5-0.1c-1.8-1.8-1.8-4.8,0.1-6.5c6.3-6.2,9.3-15,8.1-23.7c-0.4-2.5,1.4-4.9,3.9-5.2
		C123.8,85.1,126.2,86.9,126.6,89.4L126.6,89.4z M98.9,92.3c1.4,5-1.5,10.2-6.5,11.6c-5,1.4-10.2-1.5-11.6-6.5
		c-1.4-5,1.5-10.2,6.5-11.6c1.6-0.5,3.4-0.5,5,0l17.5-17.5c1.8-1.8,4.7-1.9,6.5-0.1c1.8,1.8,1.9,4.7,0.1,6.5c0,0-0.1,0.1-0.1,0.1
		L98.9,92.3z"/>
</g>
</svg>
