<?xml version="1.0" encoding="utf-8"?>
<!-- Generator: Adobe Illustrator 24.1.1, SVG Export Plug-In . SVG Version: 6.00 Build 0)  -->
<svg version="1.1" id="Layer_1" xmlns="http://www.w3.org/2000/svg" xmlns:xlink="http://www.w3.org/1999/xlink" x="0px" y="0px"
	 viewBox="0 0 180 180" style="enable-background:new 0 0 180 180;" xml:space="preserve">
<style type="text/css">
	.st0{fill:url(#SVGID_1_);}
	.st1{fill:url(#SVGID_2_);}
</style>
<linearGradient id="SVGID_1_" gradientUnits="userSpaceOnUse" x1="19.9576" y1="24.3628" x2="161.2909" y2="156.8072">
	<stop  offset="0" style="stop-color:#1F8ADB"/>
	<stop  offset="1" style="stop-color:#F52A8C"/>
</linearGradient>
<path class="st0" d="M162,10c4.4,0,8,3.6,8,8v144c0,4.4-3.6,8-8,8H18c-4.4,0-8-3.6-8-8V18c0-4.4,3.6-8,8-8H162 M162,0H18
	C8.1,0,0,8.1,0,18v144c0,9.9,8.1,18,18,18h144c9.9,0,18-8.1,18-18V18C180,8.1,171.9,0,162,0L162,0z"/>
<linearGradient id="SVGID_2_" gradientUnits="userSpaceOnUse" x1="16.6187" y1="27.9257" x2="157.9521" y2="160.3701">
	<stop  offset="0" style="stop-color:#1F8ADB"/>
	<stop  offset="1" style="stop-color:#F52A8C"/>
</linearGradient>
<path class="st1" d="M102.1,90h0.5c9.3,0,16.8-7.5,16.8-16.8V56.4c0-9.3-7.5-16.8-16.8-16.8H77.4c-9.3,0-16.8,7.5-16.8,16.8v16.8
	c0,9.3,7.5,16.8,16.8,16.8H78l7.7,6.8c1.2,1.1,2.7,1.6,4.3,1.6c1.5,0,3-0.5,4.2-1.6C94.2,96.8,102.1,90,102.1,90z M82.4,82.6
	c-0.8-0.7-1.8-1.1-2.8-1.1h-2.2c-4.6,0-8.4-3.8-8.4-8.4V56.4c0-4.6,3.8-8.4,8.4-8.4h25.2c4.6,0,8.4,3.8,8.4,8.4v16.8
	c0,4.6-3.8,8.4-8.4,8.4h-2.1c-1,0-2,0.4-2.7,1L90,89.3L82.4,82.6L82.4,82.6z M103.6,63.4L93,74.9c-1.6,1.6-3.8,2.4-5.9,2.4
	c-2,0-4.1-0.8-5.6-2.3l-5.1-5.3c-1.6-1.7-1.5-4.3,0.2-5.9c1.7-1.6,4.3-1.5,5.9,0.2l4.6,4.8l10.3-11.1c1.6-1.7,4.2-1.8,5.9-0.2
	C105.1,59.1,105.2,61.7,103.6,63.4L103.6,63.4z M64.8,98.4c-11.6,0-21,9.4-21,21s9.4,21,21,21s21-9.4,21-21S76.4,98.4,64.8,98.4z
	 M73.4,131.1L73.4,131.1c-1,0-1.8-0.6-2.2-1.5l-1.1-3.1H59.4l-1.1,3.1c-0.3,0.9-1.2,1.5-2.2,1.5c-1.6,0-2.7-1.5-2.2-3l5.7-17
	c1.2-2.8,2.9-3.4,5.1-3.4s3.8,0.6,5,3.3l5.7,17C76,129.6,74.9,131.1,73.4,131.1L73.4,131.1z M65.5,112.8l3.1,9H61l3-8.9
	c0.1-0.2,0.5-0.4,0.7-0.4C65,112.4,65.4,112.6,65.5,112.8L65.5,112.8z M117.6,117.1h-7v-2.3c0-1.3,1-2.3,2.3-2.3h4.6
	c1.2,0,2.3,0.9,2.4,2.1C120,115.9,118.9,117.1,117.6,117.1L117.6,117.1z M122.2,124.3c-0.1,1.2-1.2,2.1-2.4,2.1h-6.9
	c-1.3,0-2.3-1-2.3-2.3v-2.3h9.3C121.3,121.8,122.4,122.9,122.2,124.3L122.2,124.3z M115.2,98.4c-11.6,0-21,9.4-21,21s9.4,21,21,21
	s21-9.4,21-21S126.8,98.4,115.2,98.4z M119.7,131.1h-6.4c-4.1,0-7.5-3.3-7.5-7.5v-8.4c0-4.1,3.3-7.5,7.9-7.5h3.6
	c3.8,0,7.1,3,7.2,6.8c0,1.3-0.3,2.6-0.9,3.6c2.1,1.3,3.4,3.8,3.2,6.5C126.6,128.3,123.4,131.1,119.7,131.1z"/>
</svg>
