<?xml version="1.0" encoding="utf-8"?>
<!-- Generator: Adobe Illustrator 24.1.1, SVG Export Plug-In . SVG Version: 6.00 Build 0)  -->
<svg version="1.1" id="Layer_1" xmlns="http://www.w3.org/2000/svg" xmlns:xlink="http://www.w3.org/1999/xlink" x="0px" y="0px"
	 viewBox="0 0 180 180" style="enable-background:new 0 0 180 180;" xml:space="preserve">
<style type="text/css">
	.st0{fill:url(#SVGID_1_);}
	.st1{fill:url(#SVGID_2_);}
</style>
<linearGradient id="SVGID_1_" gradientUnits="userSpaceOnUse" x1="16.982" y1="20.5223" x2="163.6487" y2="160.0778">
	<stop  offset="0" style="stop-color:#1F8ADB"/>
	<stop  offset="1" style="stop-color:#F52A8C"/>
</linearGradient>
<path class="st0" d="M162,10c4.4,0,8,3.6,8,8v144c0,4.4-3.6,8-8,8H18c-4.4,0-8-3.6-8-8V18c0-4.4,3.6-8,8-8H162 M162,0H18
	C8.1,0,0,8.1,0,18v144c0,9.9,8.1,18,18,18h144c9.9,0,18-8.1,18-18V18C180,8.1,171.9,0,162,0L162,0z"/>
<linearGradient id="SVGID_2_" gradientUnits="userSpaceOnUse" x1="16.2747" y1="21.2656" x2="162.9413" y2="160.8212">
	<stop  offset="0" style="stop-color:#1F8ADB"/>
	<stop  offset="1" style="stop-color:#F52A8C"/>
</linearGradient>
<path class="st1" d="M66.6,90h21.3v8.5H66.6V90z M109.2,73H66.6v8.5h42.6V73z M109.2,55.9H66.6v8.5h42.6V55.9z M121.9,121.7v19.4
	l-8.5-8.5l-8.5,8.5v-19.4c-8.1-4.7-10.9-15.1-6.3-23.2c3-5.3,8.7-8.5,14.8-8.5c1.4,0,2.9,0.2,4.3,0.6V51.7c0-2.4-1.9-4.3-4.3-4.3
	H62.3c-2.4,0-4.3,1.9-4.3,4.3v72.4h38.3v8.5H49.5V51.7c0-7.1,5.7-12.8,12.8-12.8h51.1c7.1,0,12.8,5.7,12.8,12.8v44.2
	c6.2,6.9,5.6,17.6-1.4,23.8C123.9,120.4,123,121.1,121.9,121.7z M121.9,107c0-4.7-3.8-8.5-8.5-8.5s-8.5,3.8-8.5,8.5s3.8,8.5,8.5,8.5
	S121.9,111.7,121.9,107z"/>
</svg>
