<?xml version="1.0" encoding="utf-8"?>
<!-- Generator: Adobe Illustrator 24.1.1, SVG Export Plug-In . SVG Version: 6.00 Build 0)  -->
<svg version="1.1" id="Layer_1" xmlns="http://www.w3.org/2000/svg" xmlns:xlink="http://www.w3.org/1999/xlink" x="0px" y="0px"
	 viewBox="0 0 180 180" style="enable-background:new 0 0 180 180;" xml:space="preserve">
<style type="text/css">
	.st0{fill:url(#SVGID_1_);}
	.st1{fill:url(#SVGID_2_);}
</style>
<g>
	<linearGradient id="SVGID_1_" gradientUnits="userSpaceOnUse" x1="13.4052" y1="23.6279" x2="156.22" y2="164.0724">
		<stop  offset="0" style="stop-color:#1F8ADB"/>
		<stop  offset="1" style="stop-color:#F52A8C"/>
	</linearGradient>
	<path class="st0" d="M141.9,82.6l-9.6-15.9L90,80.7L47.6,66.6l-9.5,15.8C36,86,35.6,90.2,37,94.1c1.4,3.8,4.3,6.7,8.1,8v26.6
		l44.9,15l44.9-15v-26.6c3.8-1.3,6.8-4.2,8.2-8C144.4,90.3,144,86.1,141.9,82.6L141.9,82.6z M45.8,87l5.8-9.6L83.2,88l-6.9,11.5
		c-1.1,1.8-3.3,2.6-5.3,2l-22.8-7.6c-1.3-0.4-2.4-1.5-2.9-2.8C44.9,89.7,45.1,88.2,45.8,87L45.8,87z M54.1,105.1l14.2,4.7
		c1.4,0.5,2.9,0.7,4.3,0.7c4.6,0,9-2.4,11.5-6.5l1.4-2.4v31.1l-31.4-10.5L54.1,105.1L54.1,105.1z M94.5,132.8v-31.1l1.4,2.4
		c2.5,4.2,6.9,6.5,11.5,6.5c1.4,0,2.9-0.2,4.3-0.7l14.2-4.7v17.2L94.5,132.8L94.5,132.8z M134.6,91c-0.5,1.3-1.5,2.3-2.8,2.7
		l-23,7.7c-2,0.7-4.2-0.1-5.3-2L96.7,88l31.7-10.6l5.9,9.8C134.9,88.3,135.1,89.7,134.6,91L134.6,91z M68.3,64l-9.5-3.2l24.6-24.6
		l12.3,12.3l5.4-5.4l18.3,18.3l-9.5,3.2l-8.7-8.7L86.8,70.2L77.2,67L89.3,55l-6-6L68.3,64L68.3,64z"/>
	<linearGradient id="SVGID_2_" gradientUnits="userSpaceOnUse" x1="17.8803" y1="19.0773" x2="160.6951" y2="159.5217">
		<stop  offset="0" style="stop-color:#1F8ADB"/>
		<stop  offset="1" style="stop-color:#F52A8C"/>
	</linearGradient>
	<path class="st1" d="M162,10c4.4,0,8,3.6,8,8v144c0,4.4-3.6,8-8,8H18c-4.4,0-8-3.6-8-8V18c0-4.4,3.6-8,8-8H162 M162,0H18
		C8.1,0,0,8.1,0,18v144c0,9.9,8.1,18,18,18h144c9.9,0,18-8.1,18-18V18C180,8.1,171.9,0,162,0L162,0z"/>
</g>
</svg>
