<?xml version="1.0" encoding="utf-8"?>
<!-- Generator: Adobe Illustrator 24.1.1, SVG Export Plug-In . SVG Version: 6.00 Build 0)  -->
<svg version="1.1" id="Layer_1" xmlns="http://www.w3.org/2000/svg" xmlns:xlink="http://www.w3.org/1999/xlink" x="0px" y="0px"
	 viewBox="0 0 180 180" style="enable-background:new 0 0 180 180;" xml:space="preserve">
<style type="text/css">
	.st0{fill:url(#SVGID_1_);}
	.st1{fill:url(#SVGID_2_);}
</style>
<g>
	<linearGradient id="SVGID_1_" gradientUnits="userSpaceOnUse" x1="22.4619" y1="24.2162" x2="159.3508" y2="157.5495">
		<stop  offset="0" style="stop-color:#1F8ADB"/>
		<stop  offset="1" style="stop-color:#F52A8C"/>
	</linearGradient>
	<path class="st0" d="M162,10c4.4,0,8,3.6,8,8v144c0,4.4-3.6,8-8,8H18c-4.4,0-8-3.6-8-8V18c0-4.4,3.6-8,8-8H162 M162,0H18
		C8.1,0,0,8.1,0,18v144c0,9.9,8.1,18,18,18h144c9.9,0,18-8.1,18-18V18C180,8.1,171.9,0,162,0L162,0z"/>
	<linearGradient id="SVGID_2_" gradientUnits="userSpaceOnUse" x1="22.4539" y1="24.2243" x2="159.3428" y2="157.5577">
		<stop  offset="0" style="stop-color:#1F8ADB"/>
		<stop  offset="1" style="stop-color:#F52A8C"/>
	</linearGradient>
	<path class="st1" d="M90,39c-28.2,0-51,22.8-51,51s22.8,51,51,51s51-22.8,51-51C141,61.8,118.2,39,90,39z M90,132.5
		c-23.5,0-42.5-19-42.5-42.5s19-42.5,42.5-42.5s42.5,19,42.5,42.5C132.5,113.5,113.5,132.5,90,132.5z M90,68.8
		c-7,0-12.7,5.7-12.7,12.7c0,5.4,3.4,10.2,8.5,12v17.8h8.5V93.5c6.6-2.3,10.1-9.6,7.8-16.2C100.2,72.1,95.4,68.7,90,68.8z M90,85.8
		c-2.3,0-4.3-1.9-4.3-4.3s1.9-4.3,4.3-4.3s4.3,1.9,4.3,4.3S92.3,85.8,90,85.8z"/>
</g>
</svg>
