<?xml version="1.0" encoding="utf-8"?>
<!-- Generator: Adobe Illustrator 24.1.1, SVG Export Plug-In . SVG Version: 6.00 Build 0)  -->
<svg version="1.1" id="Layer_1" xmlns="http://www.w3.org/2000/svg" xmlns:xlink="http://www.w3.org/1999/xlink" x="0px" y="0px"
	 viewBox="0 0 180 180" style="enable-background:new 0 0 180 180;" xml:space="preserve">
<style type="text/css">
	.st0{fill:url(#SVGID_1_);}
	.st1{fill:url(#SVGID_2_);}
</style>
<g>
	<linearGradient id="SVGID_1_" gradientUnits="userSpaceOnUse" x1="14.6401" y1="15.5481" x2="162.1957" y2="161.3259">
		<stop  offset="0" style="stop-color:#1F8ADB"/>
		<stop  offset="1" style="stop-color:#F52A8C"/>
	</linearGradient>
	<path class="st0" d="M162,10c4.4,0,8,3.6,8,8v144c0,4.4-3.6,8-8,8H18c-4.4,0-8-3.6-8-8V18c0-4.4,3.6-8,8-8H162 M162,0H18
		C8.1,0,0,8.1,0,18v144c0,9.9,8.1,18,18,18h144c9.9,0,18-8.1,18-18V18C180,8.1,171.9,0,162,0L162,0z"/>
	<linearGradient id="SVGID_2_" gradientUnits="userSpaceOnUse" x1="16.9523" y1="13.2078" x2="164.5078" y2="158.9855">
		<stop  offset="0" style="stop-color:#1F8ADB"/>
		<stop  offset="1" style="stop-color:#F52A8C"/>
	</linearGradient>
	<path class="st1" d="M90,106.8c-9.3,0-16.8-7.5-16.8-16.8S80.7,73.2,90,73.2s16.8,7.5,16.8,16.8S99.3,106.8,90,106.8z M90,81.6
		c-4.6,0-8.4,3.8-8.4,8.4s3.8,8.4,8.4,8.4s8.4-3.8,8.4-8.4S94.6,81.6,90,81.6z M115.2,136.1c0-13.9-11.3-25.2-25.2-25.2
		s-25.2,11.3-25.2,25.2c0,2.3,1.9,4.2,4.2,4.2s4.2-1.9,4.2-4.2c0-9.3,7.5-16.8,16.8-16.8s16.8,7.5,16.8,16.8c0,2.3,1.9,4.2,4.2,4.2
		C113.3,140.3,115.2,138.5,115.2,136.1z M115.2,73.2c-9.3,0-16.8-7.5-16.8-16.8s7.5-16.8,16.8-16.8s16.8,7.5,16.8,16.8
		S124.4,73.2,115.2,73.2z M115.2,48.1c-4.6,0-8.4,3.8-8.4,8.4s3.8,8.4,8.4,8.4c4.6,0,8.4-3.8,8.4-8.4S119.8,48.1,115.2,48.1z
		 M140.3,102.6c0-13.9-11.3-25.2-25.2-25.2c-2.3,0-4.2,1.9-4.2,4.2c0,2.3,1.9,4.2,4.2,4.2c9.3,0,16.8,7.5,16.8,16.8
		c0,2.3,1.9,4.2,4.2,4.2C138.5,106.8,140.3,104.9,140.3,102.6z M64.8,73.2c-9.3,0-16.8-7.5-16.8-16.8s7.5-16.8,16.8-16.8
		s16.8,7.5,16.8,16.8S74.1,73.2,64.8,73.2z M64.8,48.1c-4.6,0-8.4,3.8-8.4,8.4s3.8,8.4,8.4,8.4s8.4-3.8,8.4-8.4S69.5,48.1,64.8,48.1
		z M48.1,102.6c0-9.3,7.5-16.8,16.8-16.8c2.3,0,4.2-1.9,4.2-4.2c0-2.3-1.9-4.2-4.2-4.2c-13.9,0-25.2,11.3-25.2,25.2
		c0,2.3,1.9,4.2,4.2,4.2S48.1,104.9,48.1,102.6z"/>
</g>
</svg>
