<?xml version="1.0" encoding="utf-8"?>
<!-- Generator: Adobe Illustrator 24.1.1, SVG Export Plug-In . SVG Version: 6.00 Build 0)  -->
<svg version="1.1" id="Layer_1" xmlns="http://www.w3.org/2000/svg" xmlns:xlink="http://www.w3.org/1999/xlink" x="0px" y="0px"
	 viewBox="0 0 180 180" style="enable-background:new 0 0 180 180;" xml:space="preserve">
<style type="text/css">
	.st0{fill:url(#SVGID_1_);}
	.st1{fill:url(#SVGID_2_);}
</style>
<g>
	<linearGradient id="SVGID_1_" gradientUnits="userSpaceOnUse" x1="15.6072" y1="18.3178" x2="161.9775" y2="159.3549">
		<stop  offset="0" style="stop-color:#1F8ADB"/>
		<stop  offset="1" style="stop-color:#F52A8C"/>
	</linearGradient>
	<path class="st0" d="M162,10c4.4,0,8,3.6,8,8v144c0,4.4-3.6,8-8,8H18c-4.4,0-8-3.6-8-8V18c0-4.4,3.6-8,8-8H162 M162,0H18
		C8.1,0,0,8.1,0,18v144c0,9.9,8.1,18,18,18h144c9.9,0,18-8.1,18-18V18C180,8.1,171.9,0,162,0L162,0z"/>
	<linearGradient id="SVGID_2_" gradientUnits="userSpaceOnUse" x1="13.4512" y1="20.5553" x2="159.8216" y2="161.5923">
		<stop  offset="0" style="stop-color:#1F8ADB"/>
		<stop  offset="1" style="stop-color:#F52A8C"/>
	</linearGradient>
	<path class="st1" d="M72.7,90h-8.6c-4.8,0-8.6,3.9-8.6,8.6v8.6c0,4.8,3.9,8.6,8.6,8.6h8.6c4.8,0,8.6-3.9,8.6-8.6v-8.6
		C81.4,93.9,77.5,90,72.7,90z M64.1,107.3v-8.6h8.6v8.6H64.1z M120.2,46.9h-4.3v-4.3c0-2.4-1.9-4.3-4.3-4.3c-2.4,0-4.3,1.9-4.3,4.3
		v4.3H72.7v-4.3c0-2.4-1.9-4.3-4.3-4.3s-4.3,1.9-4.3,4.3v4.3h-4.3c-11.9,0-21.6,9.7-21.6,21.6v51.8c0,11.9,9.7,21.6,21.6,21.6h60.4
		c11.9,0,21.6-9.7,21.6-21.6V68.4C141.8,56.5,132.1,46.9,120.2,46.9z M59.8,55.5h60.4c7.1,0,12.9,5.8,12.9,12.9v4.3H46.9v-4.3
		C46.9,61.3,52.7,55.5,59.8,55.5z M120.2,133.1H59.8c-7.1,0-12.9-5.8-12.9-12.9V81.4h86.3v38.8C133.1,127.3,127.3,133.1,120.2,133.1
		z"/>
</g>
</svg>
