<?xml version="1.0" encoding="utf-8"?>
<!-- Generator: Adobe Illustrator 24.1.1, SVG Export Plug-In . SVG Version: 6.00 Build 0)  -->
<svg version="1.1" id="Layer_1" xmlns="http://www.w3.org/2000/svg" xmlns:xlink="http://www.w3.org/1999/xlink" x="0px" y="0px"
	 viewBox="0 0 180 180" style="enable-background:new 0 0 180 180;" xml:space="preserve">
<style type="text/css">
	.st0{fill:url(#SVGID_1_);}
	.st1{fill:url(#SVGID_2_);}
</style>
<g>
	<linearGradient id="SVGID_1_" gradientUnits="userSpaceOnUse" x1="18.0352" y1="18.9292" x2="161.1463" y2="160.2625">
		<stop  offset="0" style="stop-color:#1F8ADB"/>
		<stop  offset="1" style="stop-color:#F52A8C"/>
	</linearGradient>
	<path class="st0" d="M162,10c4.4,0,8,3.6,8,8v144c0,4.4-3.6,8-8,8H18c-4.4,0-8-3.6-8-8V18c0-4.4,3.6-8,8-8H162 M162,0H18
		C8.1,0,0,8.1,0,18v144c0,9.9,8.1,18,18,18h144c9.9,0,18-8.1,18-18V18C180,8.1,171.9,0,162,0L162,0z"/>
	<linearGradient id="SVGID_2_" gradientUnits="userSpaceOnUse" x1="20.1968" y1="16.7404" x2="163.3079" y2="158.0737">
		<stop  offset="0" style="stop-color:#1F8ADB"/>
		<stop  offset="1" style="stop-color:#F52A8C"/>
	</linearGradient>
	<path class="st1" d="M129.7,123.5c2.3-3.4,3.6-7.5,3.6-11.9c0-11.9-9.7-21.6-21.6-21.6S90,99.7,90,111.6s9.7,21.6,21.6,21.6
		c4.4,0,8.5-1.3,11.9-3.6l11,11c0.8,0.8,2,1.3,3.1,1.3s2.2-0.4,3.1-1.3c1.7-1.7,1.7-4.4,0-6.1C140.6,134.5,129.7,123.5,129.7,123.5z
		 M98.6,111.6c0-7.2,5.8-13,13-13s13,5.8,13,13s-5.8,13-13,13S98.6,118.8,98.6,111.6z M64.1,57.6c0,3.6-2.9,6.5-6.5,6.5
		s-6.5-2.9-6.5-6.5s2.9-6.5,6.5-6.5S64.1,54,64.1,57.6z M81.4,57.6c0,3.6-2.9,6.5-6.5,6.5c-3.6,0-6.5-2.9-6.5-6.5s2.9-6.5,6.5-6.5
		C78.4,51.1,81.4,54,81.4,57.6z M120.3,38.1H59.7c-11.9,0-21.6,9.7-21.6,21.6v51.9c0,11.9,9.7,21.6,21.6,21.6h21.6
		c2.4,0,4.3-1.9,4.3-4.3c0-2.4-1.9-4.3-4.3-4.3H59.7c-7.2,0-13-5.8-13-13V77h86.5v13c0,2.4,1.9,4.3,4.3,4.3c2.4,0,4.3-1.9,4.3-4.3
		V59.7C141.9,47.8,132.2,38.1,120.3,38.1z M46.8,68.4v-8.6c0-7.2,5.8-13,13-13h60.5c7.2,0,13,5.8,13,13v8.6H46.8z"/>
</g>
</svg>
