<?xml version="1.0" encoding="utf-8"?>
<!-- Generator: Adobe Illustrator 24.1.1, SVG Export Plug-In . SVG Version: 6.00 Build 0)  -->
<svg version="1.1" id="Layer_1" xmlns="http://www.w3.org/2000/svg" xmlns:xlink="http://www.w3.org/1999/xlink" x="0px" y="0px"
	 viewBox="0 0 180 180" style="enable-background:new 0 0 180 180;" xml:space="preserve">
<style type="text/css">
	.st0{fill:url(#SVGID_1_);}
	.st1{fill:url(#SVGID_2_);}
</style>
<g>
	<linearGradient id="SVGID_1_" gradientUnits="userSpaceOnUse" x1="16.0226" y1="16.0227" x2="163.5782" y2="163.5782">
		<stop  offset="0" style="stop-color:#1F8ADB"/>
		<stop  offset="1" style="stop-color:#F52A8C"/>
	</linearGradient>
	<path class="st0" d="M162,10c4.4,0,8,3.6,8,8v144c0,4.4-3.6,8-8,8H18c-4.4,0-8-3.6-8-8V18c0-4.4,3.6-8,8-8H162 M162,0H18
		C8.1,0,0,8.1,0,18v144c0,9.9,8.1,18,18,18h144c9.9,0,18-8.1,18-18V18C180,8.1,171.9,0,162,0L162,0z"/>
	<linearGradient id="SVGID_2_" gradientUnits="userSpaceOnUse" x1="13.8403" y1="18.205" x2="161.3959" y2="165.7605">
		<stop  offset="0" style="stop-color:#1F8ADB"/>
		<stop  offset="1" style="stop-color:#F52A8C"/>
	</linearGradient>
	<path class="st1" d="M79.8,95.1c-2.8,0-5.1-2.3-5.1-5.1V69.7c0-2.8,2.3-5.1,5.1-5.1s5.1,2.3,5.1,5.1V90
		C84.9,92.8,82.6,95.1,79.8,95.1z M72.2,107.8c0,4.2,3.4,7.6,7.6,7.6s7.6-3.4,7.6-7.6c0-4.2-3.4-7.6-7.6-7.6S72.2,103.6,72.2,107.8z
		 M117.2,116.7c-2.1-1.9-5.3-1.7-7.2,0.4c-7.7,8.6-18.7,13.5-30.2,13.5c-22.3,0-40.5-18.2-40.5-40.6s18.2-40.6,40.5-40.6
		c17.1,0,32.5,10.9,38.2,27.1c0.9,2.6,3.8,4,6.5,3.1c2.6-0.9,4-3.8,3.1-6.5c-7.1-20.2-26.3-33.8-47.7-33.8h-0.2
		C51.9,39.4,29.2,62.1,29.2,90s22.7,50.6,50.6,50.7h0.1c0.1,0,0.1,0,0.1,0H80c14.4-0.1,28.1-6.2,37.6-16.9
		C119.5,121.7,119.3,118.5,117.2,116.7z M149.4,76.3c-1.9-2-5.2-2.1-7.2-0.1l-17.8,17.2c-2.2,2.2-5.9,2.2-8.3-0.1l-7.6-7
		c-2.1-1.9-5.3-1.8-7.2,0.3c-1.9,2.1-1.8,5.3,0.3,7.2l7.4,6.8c3.1,3.1,7.2,4.7,11.3,4.7c4.1,0,8.1-1.5,11.2-4.6l17.7-17.1
		C151.3,81.6,151.3,78.4,149.4,76.3L149.4,76.3z"/>
</g>
</svg>
