<?xml version="1.0" encoding="utf-8"?>
<!-- Generator: Adobe Illustrator 24.1.1, SVG Export Plug-In . SVG Version: 6.00 Build 0)  -->
<svg version="1.1" id="Layer_1" xmlns="http://www.w3.org/2000/svg" xmlns:xlink="http://www.w3.org/1999/xlink" x="0px" y="0px"
	 viewBox="0 0 180 180" style="enable-background:new 0 0 180 180;" xml:space="preserve">
<style type="text/css">
	.st0{fill:url(#SVGID_1_);}
	.st1{fill:url(#SVGID_2_);}
	.st2{fill:url(#SVGID_3_);}
</style>
<g>
	<linearGradient id="SVGID_1_" gradientUnits="userSpaceOnUse" x1="18.2006" y1="14.5653" x2="158.6451" y2="162.1209">
		<stop  offset="0" style="stop-color:#1F8ADB"/>
		<stop  offset="1" style="stop-color:#F52A8C"/>
	</linearGradient>
	<path class="st0" d="M90,72.6c-9.6,0-17.4,7.8-17.4,17.4c0,9.6,7.8,17.4,17.4,17.4c9.6,0,17.4-7.8,17.4-17.4
		C107.4,80.4,99.6,72.6,90,72.6z M90,98.7c-4.8,0-8.7-3.9-8.7-8.7c0-4.8,3.9-8.7,8.7-8.7c4.8,0,8.7,3.9,8.7,8.7
		C98.7,94.8,94.8,98.7,90,98.7z"/>
	<linearGradient id="SVGID_2_" gradientUnits="userSpaceOnUse" x1="18.1995" y1="14.5664" x2="158.644" y2="162.1219">
		<stop  offset="0" style="stop-color:#1F8ADB"/>
		<stop  offset="1" style="stop-color:#F52A8C"/>
	</linearGradient>
	<path class="st1" d="M130.5,98.3L130.5,98.3l-1.9-1.1c0.9-4.7,0.9-9.6,0-14.3l1.9-1.1c6.3-3.6,8.4-11.6,4.8-17.8
		c-3.6-6.3-11.6-8.4-17.8-4.8l-1.9,1.1c-3.7-3.1-7.9-5.5-12.4-7.1v-2.2c0-7.2-5.8-13.1-13.1-13.1s-13.1,5.8-13.1,13.1v2.2
		c-4.5,1.6-8.7,4-12.4,7.2l-1.9-1.1c-6.3-3.6-14.2-1.5-17.8,4.8c-3.6,6.3-1.5,14.2,4.8,17.8l1.9,1.1c-0.9,4.7-0.9,9.6,0,14.3
		l-1.9,1.1c-6.3,3.6-8.4,11.6-4.8,17.8c3.6,6.3,11.6,8.4,17.8,4.8l1.9-1.1c3.7,3.1,7.9,5.5,12.4,7.1v2.2c0,7.2,5.8,13.1,13.1,13.1
		s13.1-5.8,13.1-13.1v-2.2c4.5-1.6,8.7-4,12.4-7.2l1.9,1.1c6.3,3.6,14.2,1.5,17.8-4.8S136.7,101.9,130.5,98.3z M119.4,81.8
		L119.4,81.8c1.5,5.3,1.5,11,0,16.3c-0.5,1.9,0.3,3.9,2,4.9l4.7,2.7c2.1,1.2,2.8,3.9,1.6,5.9c-1.2,2.1-3.9,2.8-5.9,1.6l-4.7-2.7
		c-1.7-1-3.9-0.7-5.3,0.7c-3.9,4-8.8,6.8-14.1,8.2c-1.9,0.5-3.3,2.2-3.3,4.2v5.5c0,2.4-1.9,4.4-4.4,4.4s-4.4-1.9-4.4-4.4v-5.4
		c0-2-1.3-3.7-3.3-4.2c-5.4-1.4-10.2-4.2-14.1-8.2c-1.4-1.4-3.6-1.7-5.3-0.7l-4.7,2.7c-2.1,1.2-4.7,0.5-6-1.6
		c-1.2-2.1-0.5-4.7,1.6-6c0,0,0,0,0,0l4.7-2.7c1.7-1,2.5-3,2-4.9c-1.5-5.3-1.5-11,0-16.3c0.5-1.9-0.3-3.9-2-4.9l-4.7-2.7
		c-2.1-1.2-2.8-3.9-1.6-5.9c1.2-2.1,3.9-2.8,5.9-1.6l4.7,2.7c1.7,1,3.9,0.7,5.3-0.7c3.9-4,8.8-6.8,14.1-8.2c1.9-0.5,3.3-2.2,3.3-4.2
		v-5.4c0-2.4,1.9-4.4,4.4-4.4c2.4,0,4.4,1.9,4.4,4.4v5.4c0,2,1.3,3.7,3.3,4.2c5.4,1.4,10.2,4.2,14.1,8.2c1.4,1.4,3.6,1.7,5.3,0.7
		l4.7-2.7c2.1-1.2,4.7-0.5,6,1.6c1.2,2.1,0.5,4.7-1.6,6c0,0,0,0-0.1,0l-4.7,2.7C119.7,77.9,118.8,79.9,119.4,81.8z"/>
	<linearGradient id="SVGID_3_" gradientUnits="userSpaceOnUse" x1="18.2007" y1="14.5653" x2="158.6451" y2="162.1209">
		<stop  offset="0" style="stop-color:#1F8ADB"/>
		<stop  offset="1" style="stop-color:#F52A8C"/>
	</linearGradient>
	<path class="st2" d="M162,0H18C8.1,0,0,8.1,0,18v144c0,9.9,8.1,18,18,18h144c9.9,0,18-8.1,18-18V18C180,8.1,171.9,0,162,0z
		 M170,162c0,4.4-3.6,8-8,8H18c-4.4,0-8-3.6-8-8V18c0-4.4,3.6-8,8-8h144c4.4,0,8,3.6,8,8V162z"/>
</g>
</svg>
