<?xml version="1.0" encoding="utf-8"?>
<!-- Generator: Adobe Illustrator 24.1.1, SVG Export Plug-In . SVG Version: 6.00 Build 0)  -->
<svg version="1.1" id="Layer_1" xmlns="http://www.w3.org/2000/svg" xmlns:xlink="http://www.w3.org/1999/xlink" x="0px" y="0px"
	 viewBox="0 0 180 180" style="enable-background:new 0 0 180 180;" xml:space="preserve">
<style type="text/css">
	.st0{fill:url(#SVGID_1_);}
	.st1{fill:url(#SVGID_2_);}
</style>
<linearGradient id="SVGID_1_" gradientUnits="userSpaceOnUse" x1="17.8542" y1="18.4504" x2="161.2616" y2="160.6727">
	<stop  offset="0" style="stop-color:#1F8ADB"/>
	<stop  offset="1" style="stop-color:#F52A8C"/>
</linearGradient>
<path class="st0" d="M162,10c4.4,0,8,3.6,8,8v144c0,4.4-3.6,8-8,8H18c-4.4,0-8-3.6-8-8V18c0-4.4,3.6-8,8-8H162 M162,0H18
	C8.1,0,0,8.1,0,18v144c0,9.9,8.1,18,18,18h144c9.9,0,18-8.1,18-18V18C180,8.1,171.9,0,162,0L162,0z"/>
<linearGradient id="SVGID_2_" gradientUnits="userSpaceOnUse" x1="18.9148" y1="17.381" x2="162.3222" y2="159.6032">
	<stop  offset="0" style="stop-color:#1F8ADB"/>
	<stop  offset="1" style="stop-color:#F52A8C"/>
</linearGradient>
<path class="st1" d="M119.9,38.7H60.1c-11.8,0-21.4,9.6-21.4,21.4v4.3c0,3.8,1.7,7.2,4.3,9.6v46.1c0,11.8,9.6,21.4,21.4,21.4h51.3
	c11.8,0,21.4-9.6,21.4-21.4V73.9c2.6-2.4,4.3-5.8,4.3-9.6v-4.3C141.3,48.3,131.7,38.7,119.9,38.7z M47.2,60.1
	c0-7.1,5.8-12.8,12.8-12.8h59.9c7.1,0,12.8,5.8,12.8,12.8v4.3c0,2.4-1.9,4.3-4.3,4.3h-77c-2.4,0-4.3-1.9-4.3-4.3V60.1z M128.5,119.9
	c0,7.1-5.8,12.8-12.8,12.8H64.3c-7.1,0-12.8-5.8-12.8-12.8V77.2h77V119.9z M65.6,105.9c-1.7-1.7-1.7-4.4,0-6c1.7-1.7,4.4-1.7,6.1,0
	L82,110.1c1.6,1.6,4.4,1.6,6.1,0l20.4-19c1.7-1.6,4.4-1.5,6,0.2c1.6,1.7,1.5,4.4-0.2,6L94,116.3c-2.3,2.3-5.5,3.7-9,3.7
	s-6.7-1.3-9.1-3.8L65.6,105.9L65.6,105.9z"/>
</svg>
