<?xml version="1.0" encoding="utf-8"?>
<!-- Generator: Adobe Illustrator 24.1.1, SVG Export Plug-In . SVG Version: 6.00 Build 0)  -->
<svg version="1.1" id="Layer_1" xmlns="http://www.w3.org/2000/svg" xmlns:xlink="http://www.w3.org/1999/xlink" x="0px" y="0px"
	 viewBox="0 0 180 180" style="enable-background:new 0 0 180 180;" xml:space="preserve">
<style type="text/css">
	.st0{fill:url(#SVGID_1_);}
	.st1{fill:url(#SVGID_2_);}
	.st2{fill:url(#SVGID_3_);}
	.st3{fill:url(#SVGID_4_);}
</style>
<g>
	<linearGradient id="SVGID_1_" gradientUnits="userSpaceOnUse" x1="18.7715" y1="17.599" x2="162.7715" y2="163.9693">
		<stop  offset="0" style="stop-color:#1F8ADB"/>
		<stop  offset="1" style="stop-color:#F52A8C"/>
	</linearGradient>
	<path class="st0" d="M162,0H18C8.1,0,0,8.1,0,18v144c0,9.9,8.1,18,18,18h144c9.9,0,18-8.1,18-18V18C180,8.1,171.9,0,162,0z
		 M170,162c0,4.4-3.6,8-8,8H18c-4.4,0-8-3.6-8-8V18c0-4.4,3.6-8,8-8h144c4.4,0,8,3.6,8,8V162z"/>
	<linearGradient id="SVGID_2_" gradientUnits="userSpaceOnUse" x1="-4.3883" y1="40.3836" x2="139.6118" y2="186.754">
		<stop  offset="0" style="stop-color:#1F8ADB"/>
		<stop  offset="1" style="stop-color:#F52A8C"/>
	</linearGradient>
	<path class="st1" d="M97.8,112.2L97.8,112.2L97.8,112.2L84,125.9c-8.4,8.1-21.8,8-29.9-0.4c-8-8.2-8-21.3,0-29.5l13.7-13.7
		c1.6-1.6,1.6-4.3,0-6c-1.6-1.6-4.3-1.6-6,0L48.2,90c-11.5,11.6-11.5,30.3,0,41.8c11.6,11.5,30.3,11.5,41.8,0l13.7-13.7
		c1.6-1.7,1.6-4.3-0.1-5.9C102,110.6,99.4,110.6,97.8,112.2z"/>
	<linearGradient id="SVGID_3_" gradientUnits="userSpaceOnUse" x1="41.9125" y1="-5.1673" x2="185.9125" y2="141.2031">
		<stop  offset="0" style="stop-color:#1F8ADB"/>
		<stop  offset="1" style="stop-color:#F52A8C"/>
	</linearGradient>
	<path class="st2" d="M110.9,39.5c-7.8,0-15.4,3.1-20.9,8.7L76.3,61.9c-1.6,1.6-1.6,4.3,0,6c1.6,1.6,4.3,1.6,6,0L96,54.1
		c4-4,9.3-6.2,15-6.2c11.7,0,21.2,9.5,21.1,21.2c0,5.6-2.2,11-6.2,15l-13.7,13.7c-1.6,1.6-1.6,4.3,0,6c1.6,1.6,4.3,1.6,6,0L131.8,90
		c11.5-11.6,11.5-30.3,0-41.8C126.3,42.6,118.8,39.5,110.9,39.5z"/>
	<linearGradient id="SVGID_4_" gradientUnits="userSpaceOnUse" x1="18.724" y1="17.6457" x2="162.724" y2="164.0161">
		<stop  offset="0" style="stop-color:#1F8ADB"/>
		<stop  offset="1" style="stop-color:#F52A8C"/>
	</linearGradient>
	<path class="st3" d="M99.7,74.4L74.4,99.6c-1.7,1.6-1.7,4.3-0.1,5.9c1.6,1.7,4.3,1.7,5.9,0.1c0,0,0.1-0.1,0.1-0.1l25.2-25.2
		c1.6-1.7,1.6-4.3-0.1-5.9C103.9,72.8,101.3,72.8,99.7,74.4z"/>
</g>
</svg>
