<?xml version="1.0" encoding="utf-8"?>
<!-- Generator: Adobe Illustrator 24.1.1, SVG Export Plug-In . SVG Version: 6.00 Build 0)  -->
<svg version="1.1" id="Layer_1" xmlns="http://www.w3.org/2000/svg" xmlns:xlink="http://www.w3.org/1999/xlink" x="0px" y="0px"
	 viewBox="0 0 180 180" style="enable-background:new 0 0 180 180;" xml:space="preserve">
<style type="text/css">
	.st0{fill:url(#SVGID_1_);}
	.st1{fill:url(#SVGID_2_);}
</style>
<g>
	<linearGradient id="SVGID_1_" gradientUnits="userSpaceOnUse" x1="15.9329" y1="16.234" x2="161.7107" y2="161.4192">
		<stop  offset="0" style="stop-color:#1F8ADB"/>
		<stop  offset="1" style="stop-color:#F52A8C"/>
	</linearGradient>
	<path class="st0" d="M162,10c4.4,0,8,3.6,8,8v144c0,4.4-3.6,8-8,8H18c-4.4,0-8-3.6-8-8V18c0-4.4,3.6-8,8-8H162 M162,0H18
		C8.1,0,0,8.1,0,18v144c0,9.9,8.1,18,18,18h144c9.9,0,18-8.1,18-18V18C180,8.1,171.9,0,162,0L162,0z"/>
	<linearGradient id="SVGID_2_" gradientUnits="userSpaceOnUse" x1="15.0698" y1="17.1006" x2="160.8476" y2="162.2858">
		<stop  offset="0" style="stop-color:#1F8ADB"/>
		<stop  offset="1" style="stop-color:#F52A8C"/>
	</linearGradient>
	<path class="st1" d="M102.6,64.7c2.3,0,4.2,1.9,4.2,4.2s-1.9,4.2-4.2,4.2H68.9c-2.3,0-4.2-1.9-4.2-4.2s1.9-4.2,4.2-4.2H102.6z
		 M135.1,139.4c-1.6,1.6-4.3,1.6-6,0L119,129.2c-3,1.9-6.5,2.9-10.1,3c-10.5,0-19-8.5-19-19s8.5-19,19-19s19,8.5,19,19l0,0
		c0,3.6-1,7.1-3,10.1l10.1,10.1C136.8,135,136.8,137.7,135.1,139.4z M109,123.7c5.8,0,10.5-4.7,10.5-10.5s-4.7-10.5-10.5-10.5
		s-10.5,4.7-10.5,10.5S103.2,123.7,109,123.7z M90,132.2H64.7c-7,0-12.6-5.7-12.6-12.6v-59c0-7,5.7-12.6,12.6-12.6h50.6
		c2.3,0,4.2,1.9,4.2,4.2v33.7c0,2.3,1.9,4.2,4.2,4.2c2.3,0,4.2-1.9,4.2-4.2V52.1c0-7-5.7-12.6-12.6-12.6H64.7
		c-11.6,0-21.1,9.4-21.1,21.1v59c0,11.6,9.4,21.1,21.1,21.1H90c2.3,0,4.2-1.9,4.2-4.2S92.3,132.2,90,132.2z"/>
</g>
</svg>
