<?xml version="1.0" encoding="utf-8"?>
<!-- Generator: Adobe Illustrator 24.1.1, SVG Export Plug-In . SVG Version: 6.00 Build 0)  -->
<svg version="1.1" id="Layer_1" xmlns="http://www.w3.org/2000/svg" xmlns:xlink="http://www.w3.org/1999/xlink" x="0px" y="0px"
	 viewBox="0 0 180 180" style="enable-background:new 0 0 180 180;" xml:space="preserve">
<style type="text/css">
	.st0{fill:url(#SVGID_1_);}
	.st1{fill:url(#SVGID_2_);}
	.st2{fill:url(#SVGID_3_);}
	.st3{fill:url(#SVGID_4_);}
</style>
<g>
	<linearGradient id="SVGID_1_" gradientUnits="userSpaceOnUse" x1="19.1133" y1="17.6547" x2="163.1133" y2="164.6176">
		<stop  offset="0" style="stop-color:#1F8ADB"/>
		<stop  offset="1" style="stop-color:#F52A8C"/>
	</linearGradient>
	<path class="st0" d="M162,0H18C8.1,0,0,8.1,0,18v144c0,9.9,8.1,18,18,18h144c9.9,0,18-8.1,18-18V18C180,8.1,171.9,0,162,0z
		 M170,162c0,4.4-3.6,8-8,8H18c-4.4,0-8-3.6-8-8V18c0-4.4,3.6-8,8-8h144c4.4,0,8,3.6,8,8V162z"/>
	<linearGradient id="SVGID_2_" gradientUnits="userSpaceOnUse" x1="18.3179" y1="18.434" x2="162.3179" y2="165.3969">
		<stop  offset="0" style="stop-color:#1F8ADB"/>
		<stop  offset="1" style="stop-color:#F52A8C"/>
	</linearGradient>
	<path class="st1" d="M134.8,66.5c5.9-5.9,5.9-15.4,0-21.3c-5.9-5.9-15.4-5.9-21.3,0L68.7,90c-6.2-0.3-12.5,1.8-17.2,6.6
		c-6.2,6.2-9.6,23.5-10.6,31.8c-0.3,2.9,0.6,5.8,2.7,7.9c1.8,1.8,4.2,2.8,6.7,2.8c0.4,0,0.8,0,1.1-0.1c1-0.1,24.3-2.9,31.9-10.5
		c4.7-4.7,6.9-11,6.6-17.2L134.8,66.5z M77.6,122.7L77.6,122.7c-3.5,3.5-16.8,7-27.1,8.2c-0.6,0.1-0.9-0.2-1.1-0.4
		c-0.2-0.2-0.4-0.5-0.4-1.1c1.2-10.3,4.8-23.5,8.3-27c2.8-2.8,6.5-4.2,10.2-4.2c3.7,0,7.4,1.4,10.2,4.2
		C83.2,108,83.2,117.1,77.6,122.7z M83.4,96.6c-1.7-1.7-3.6-3-5.6-4.1L119.3,51c2.7-2.7,7-2.7,9.7,0c2.7,2.7,2.7,7,0,9.7l-41.5,41.5
		C86.4,100.2,85.1,98.3,83.4,96.6z"/>
	<linearGradient id="SVGID_3_" gradientUnits="userSpaceOnUse" x1="18.8402" y1="17.9223" x2="162.8402" y2="164.8852">
		<stop  offset="0" style="stop-color:#1F8ADB"/>
		<stop  offset="1" style="stop-color:#F52A8C"/>
	</linearGradient>
	<path class="st2" d="M60.2,81.4L60.2,81.4c0.8,0.8,1.9,1.2,2.9,1.2c1,0,2.1-0.4,2.9-1.2c1.6-1.6,1.6-4.2,0-5.8L51,60.7
		c-2.7-2.7-2.7-7,0-9.7c2.7-2.7,7-2.7,9.7,0L75.6,66c1.6,1.6,4.2,1.6,5.8,0s1.6-4.2,0-5.8L66.5,45.2c-5.9-5.9-15.4-5.9-21.3,0
		c-5.9,5.9-5.9,15.4,0,21.3L60.2,81.4z"/>
	<linearGradient id="SVGID_4_" gradientUnits="userSpaceOnUse" x1="19.3741" y1="17.3991" x2="163.3741" y2="164.3621">
		<stop  offset="0" style="stop-color:#1F8ADB"/>
		<stop  offset="1" style="stop-color:#F52A8C"/>
	</linearGradient>
	<path class="st3" d="M119.9,98.6c-1.6-1.6-4.2-1.6-5.8,0s-1.6,4.2,0,5.8l12.1,12.1c3.1,3,4.8,7.3,4.8,11.6v2.9h-2.9
		c-4.4,0-8.5-1.7-11.6-4.8l-12.1-12.1c-1.6-1.6-4.2-1.6-5.8,0s-1.6,4.2,0,5.8l12.1,12.1c4.6,4.6,10.8,7.2,17.4,7.2h7
		c2.3,0,4.1-1.8,4.1-4.1v-7c0-6.5-2.6-12.8-7.2-17.4L119.9,98.6z"/>
</g>
</svg>
