<?xml version="1.0" encoding="utf-8"?>
<!-- Generator: Adobe Illustrator 24.1.1, SVG Export Plug-In . SVG Version: 6.00 Build 0)  -->
<svg version="1.1" id="Layer_1" xmlns="http://www.w3.org/2000/svg" xmlns:xlink="http://www.w3.org/1999/xlink" x="0px" y="0px"
	 viewBox="0 0 180 180" style="enable-background:new 0 0 180 180;" xml:space="preserve">
<style type="text/css">
	.st0{fill:url(#SVGID_1_);}
	.st1{fill:url(#SVGID_2_);}
</style>
<g>
	<linearGradient id="SVGID_1_" gradientUnits="userSpaceOnUse" x1="21.5074" y1="18.5678" x2="159.5815" y2="162.5678">
		<stop  offset="0" style="stop-color:#1F8ADB"/>
		<stop  offset="1" style="stop-color:#F52A8C"/>
	</linearGradient>
	<path class="st0" d="M162,10c4.4,0,8,3.6,8,8v144c0,4.4-3.6,8-8,8H18c-4.4,0-8-3.6-8-8V18c0-4.4,3.6-8,8-8H162 M162,0H18
		C8.1,0,0,8.1,0,18v144c0,9.9,8.1,18,18,18h144c9.9,0,18-8.1,18-18V18C180,8.1,171.9,0,162,0L162,0z"/>
	<linearGradient id="SVGID_2_" gradientUnits="userSpaceOnUse" x1="21.5074" y1="18.5678" x2="159.5815" y2="162.5678">
		<stop  offset="0" style="stop-color:#1F8ADB"/>
		<stop  offset="1" style="stop-color:#F52A8C"/>
	</linearGradient>
	<path class="st1" d="M90,108.4c-10.2,0-18.4-8.3-18.4-18.4S79.8,71.6,90,71.6s18.4,8.3,18.4,18.4S100.2,108.4,90,108.4z M90,80.8
		c-5.1,0-9.2,4.1-9.2,9.2s4.1,9.2,9.2,9.2c5.1,0,9.2-4.1,9.2-9.2S95.1,80.8,90,80.8z M57.8,67c-2.5,0-4.6,2.1-4.6,4.6
		s2.1,4.6,4.6,4.6c2.5,0,4.6-2.1,4.6-4.6S60.3,67,57.8,67z M117.6,80.8c0,2.5,2.1,4.6,4.6,4.6c2.5,0,4.6-2.1,4.6-4.6
		s-2.1-4.6-4.6-4.6C119.7,76.2,117.6,78.2,117.6,80.8z M57.8,94.6c-2.5,0-4.6,2.1-4.6,4.6s2.1,4.6,4.6,4.6c2.5,0,4.6-2.1,4.6-4.6
		S60.3,94.6,57.8,94.6z M117.6,108.4c0,2.5,2.1,4.6,4.6,4.6c2.5,0,4.6-2.1,4.6-4.6s-2.1-4.6-4.6-4.6
		C119.7,103.8,117.6,105.9,117.6,108.4z M113,131.4c-7.5,0-14.3-1.8-20.8-3.6c-6.2-1.7-12.1-3.3-18.4-3.3c-7.2,0-11.8,0.5-15.7,1.6
		c-5.6,1.6-11.4,0.5-16-3c-4.7-3.5-7.4-8.9-7.4-14.8V73.7c0-9.5,6-18.2,14.9-21.6c6.2-2.4,12-3.6,17.4-3.6c7.5,0,14.3,1.8,20.8,3.6
		c6.2,1.7,12.1,3.3,18.4,3.3c7.2,0,11.8-0.5,15.7-1.6c5.6-1.6,11.4-0.5,16,3c4.7,3.5,7.4,8.9,7.4,14.8v34.8l0,0
		c0,9.5-6,18.2-14.9,21.6C124.2,130.3,118.4,131.4,113,131.4L113,131.4z M73.9,115.3c7.5,0,14.3,1.8,20.8,3.6
		c6.2,1.7,12.1,3.3,18.4,3.3c4.2,0,8.9-1,14.1-2.9c5.4-2.1,9-7.2,9-12.9V71.6c0-2.9-1.3-5.6-3.7-7.4c-2.3-1.7-5.2-2.3-7.9-1.5
		c-4.8,1.4-10.1,2-18.3,2c-7.5,0-14.3-1.8-20.8-3.6c-6.2-1.7-12.1-3.3-18.4-3.3c-4.2,0-8.9,1-14.1,2.9c-5.4,2.1-9,7.2-9,12.9v34.8
		c0,2.9,1.3,5.6,3.7,7.4c2.3,1.7,5.2,2.3,7.9,1.5C60.4,115.9,65.7,115.3,73.9,115.3L73.9,115.3z"/>
</g>
</svg>
