<?xml version="1.0" encoding="utf-8"?>
<!-- Generator: Adobe Illustrator 24.1.1, SVG Export Plug-In . SVG Version: 6.00 Build 0)  -->
<svg version="1.1" id="Layer_1" xmlns="http://www.w3.org/2000/svg" xmlns:xlink="http://www.w3.org/1999/xlink" x="0px" y="0px"
	 viewBox="0 0 180 180" style="enable-background:new 0 0 180 180;" xml:space="preserve">
<style type="text/css">
	.st0{fill:url(#SVGID_1_);}
	.st1{fill:url(#SVGID_2_);}
</style>
<g>
	<linearGradient id="SVGID_1_" gradientUnits="userSpaceOnUse" x1="16.9856" y1="14.7306" x2="165.4301" y2="162.7306">
		<stop  offset="0" style="stop-color:#1F8ADB"/>
		<stop  offset="1" style="stop-color:#F52A8C"/>
	</linearGradient>
	<path class="st0" d="M77.3,106.9H84c4.5,0,8.7-1.8,12-4.9l41-41c2.4-2.4,3.7-5.6,3.7-9s-1.3-6.6-3.7-9c-4.9-4.9-13-4.9-17.9,0
		L78,84c-3.2,3.2-4.9,7.4-4.9,12v6.7C73.1,105,75,106.9,77.3,106.9L77.3,106.9z M131,49c0.8,0.8,1.2,1.9,1.2,3s-0.4,2.2-1.2,3
		l-5.5,5.5l-6-6l5.5-5.5C126.7,47.4,129.4,47.4,131,49L131,49z M81.5,96c0-2.2,0.9-4.4,2.5-6l29.6-29.6l6,6L90,96
		c-1.6,1.6-3.7,2.5-6,2.5h-2.5V96z M140.7,136.5c0,2.3-1.9,4.2-4.2,4.2c-6.5,0-9.7-4.7-12-8.2c-2.1-3.2-3.2-4.4-4.9-4.4
		c-2.2,0-3.8,1.9-6.4,4.9c-3,3.5-6.6,7.8-12.8,7.8s-9.8-4.4-12.7-7.9c-2.5-3-4.1-4.8-6.2-4.8c-1.6,0-2.7,1.1-4.9,3.8
		c-3,3.7-7.2,8.8-16.2,8.8c-11.7,0-21.1-9.5-21.1-21.1c0-11.7,9.5-21.1,21.1-21.1c2.3,0,4.2,1.9,4.2,4.2s-1.9,4.2-4.2,4.2
		c-7,0-12.7,5.7-12.7,12.7c0,7,5.7,12.7,12.7,12.7c5,0,7.1-2.5,9.7-5.7c2.5-3.1,5.7-6.9,11.5-6.9c6.2,0,9.8,4.4,12.7,7.9
		c2.5,3,4.1,4.8,6.2,4.8s3.8-1.9,6.4-4.9c3-3.5,6.6-7.8,12.8-7.8s9.7,4.7,12,8.2c2.1,3.2,3.2,4.4,4.9,4.4
		C138.8,132.3,140.7,134.2,140.7,136.5z"/>
	<linearGradient id="SVGID_2_" gradientUnits="userSpaceOnUse" x1="15.7488" y1="15.9711" x2="164.1933" y2="163.9711">
		<stop  offset="0" style="stop-color:#1F8ADB"/>
		<stop  offset="1" style="stop-color:#F52A8C"/>
	</linearGradient>
	<path class="st1" d="M162,10c4.4,0,8,3.6,8,8v144c0,4.4-3.6,8-8,8H18c-4.4,0-8-3.6-8-8V18c0-4.4,3.6-8,8-8H162 M162,0H18
		C8.1,0,0,8.1,0,18v144c0,9.9,8.1,18,18,18h144c9.9,0,18-8.1,18-18V18C180,8.1,171.9,0,162,0L162,0z"/>
</g>
</svg>
