<?xml version="1.0" encoding="utf-8"?>
<!-- Generator: Adobe Illustrator 24.1.1, SVG Export Plug-In . SVG Version: 6.00 Build 0)  -->
<svg version="1.1" id="Layer_1" xmlns="http://www.w3.org/2000/svg" xmlns:xlink="http://www.w3.org/1999/xlink" x="0px" y="0px"
	 viewBox="0 0 180 180" style="enable-background:new 0 0 180 180;" xml:space="preserve">
<style type="text/css">
	.st0{fill:url(#SVGID_1_);}
	.st1{fill:url(#SVGID_2_);}
</style>
<g>
	
		<linearGradient id="SVGID_1_" gradientUnits="userSpaceOnUse" x1="11.1383" y1="8.4074" x2="156.4716" y2="155.0741" gradientTransform="matrix(1 4.033620e-03 -4.033620e-03 1 5.6715 7.0532)">
		<stop  offset="0" style="stop-color:#1F8ADB"/>
		<stop  offset="1" style="stop-color:#F52A8C"/>
	</linearGradient>
	<path class="st0" d="M162.3,10.3c4.4,0,8,3.6,8,8l-0.6,144c0,4.4-3.6,8-8,8l-144-0.6c-4.4,0-8-3.6-8-8l0.6-144c0-4.4,3.6-8,8-8
		L162.3,10.3 M162.4,0.3l-144-0.6c-9.9,0-18,8-18.1,17.9l-0.6,144c0,9.9,8,18,17.9,18.1l144,0.6c9.9,0,18-8,18.1-17.9l0.6-144
		C180.3,8.4,172.3,0.3,162.4,0.3L162.4,0.3z"/>
	
		<linearGradient id="SVGID_2_" gradientUnits="userSpaceOnUse" x1="5.7913" y1="13.7058" x2="151.1246" y2="160.3725" gradientTransform="matrix(1 4.033620e-03 -4.033620e-03 1 5.6715 7.0532)">
		<stop  offset="0" style="stop-color:#1F8ADB"/>
		<stop  offset="1" style="stop-color:#F52A8C"/>
	</linearGradient>
	<path class="st1" d="M141.1,137.3c0,2.4-1.9,4.3-4.3,4.3l-85.6-0.3c-7.1,0-12.8-5.8-12.8-12.9l0.3-85.6c0-2.4,1.9-4.3,4.3-4.3
		c2.4,0,4.3,1.9,4.3,4.3l-0.3,85.6c0,2.4,1.9,4.3,4.3,4.3l85.6,0.3C139.2,133,141.2,134.9,141.1,137.3z M128.6,60.2l-17.1-0.1
		c-2.4,0-4.3,1.9-4.3,4.3c0,2.4,1.9,4.3,4.3,4.3l15.2,0.1l-20.9,20.1c-1.6,1.6-4.4,1.6-6,0c-0.2-0.2-5.3-3.8-5.3-3.8
		c-4.8-4.6-13.1-4.5-17.8,0.1L57,103.9c-1.7,1.6-1.8,4.3-0.1,6c0.8,0.9,2,1.3,3.1,1.3c1.1,0,2.1-0.4,3-1.2l19.8-18.9
		c1.6-1.6,4.4-1.6,6,0c0.2,0.2,5.3,3.8,5.3,3.8c4.9,4.6,13.1,4.5,17.8-0.2l21-20.2l-0.1,15.4c0,2.4,1.9,4.3,4.3,4.3
		c2.4,0,4.3-1.9,4.3-4.3l0.1-17.1C141.4,66,135.7,60.2,128.6,60.2L128.6,60.2z"/>
</g>
</svg>
