<?xml version="1.0" encoding="utf-8"?>
<!-- Generator: Adobe Illustrator 24.1.1, SVG Export Plug-In . SVG Version: 6.00 Build 0)  -->
<svg version="1.1" id="Layer_1" xmlns="http://www.w3.org/2000/svg" xmlns:xlink="http://www.w3.org/1999/xlink" x="0px" y="0px"
	 viewBox="0 0 180 180" style="enable-background:new 0 0 180 180;" xml:space="preserve">
<style type="text/css">
	.st0{fill:url(#SVGID_1_);}
	.st1{fill:url(#SVGID_2_);}
</style>
<linearGradient id="SVGID_1_" gradientUnits="userSpaceOnUse" x1="15.4864" y1="15.0367" x2="162.7457" y2="163.1848">
	<stop  offset="0" style="stop-color:#1F8ADB"/>
	<stop  offset="1" style="stop-color:#F52A8C"/>
</linearGradient>
<path class="st0" d="M162,10c4.4,0,8,3.6,8,8v144c0,4.4-3.6,8-8,8H18c-4.4,0-8-3.6-8-8V18c0-4.4,3.6-8,8-8H162 M162,0H18
	C8.1,0,0,8.1,0,18v144c0,9.9,8.1,18,18,18h144c9.9,0,18-8.1,18-18V18C180,8.1,171.9,0,162,0L162,0z"/>
<linearGradient id="SVGID_2_" gradientUnits="userSpaceOnUse" x1="14.5187" y1="15.9986" x2="161.7779" y2="164.1468">
	<stop  offset="0" style="stop-color:#1F8ADB"/>
	<stop  offset="1" style="stop-color:#F52A8C"/>
</linearGradient>
<path class="st1" d="M46.7,51c0-7.2,5.8-13,13-13s13,5.8,13,13s-5.8,13-13,13S46.7,58.2,46.7,51z M68.3,85.7c0,7.2,5.8,13,13,13
	c7.2,0,13-5.8,13-13c0-7.2-5.8-13-13-13C74.2,72.7,68.3,78.5,68.3,85.7z M103,64c7.2,0,13-5.8,13-13s-5.8-13-13-13
	c-7.2,0-13,5.8-13,13S95.8,64,103,64z M63.8,73.2c-0.9-3.5-4.4-5.6-7.9-4.7C45.5,71.2,38,81.1,38,92.2c0,3.6,2.9,6.5,6.5,6.5
	c3.6,0,6.5-2.9,6.5-6.5c0-5.1,3.5-9.8,8.1-11C62.6,80.2,64.7,76.7,63.8,73.2z M111.7,92.2c0,3.6,2.9,6.5,6.5,6.5
	c3.6,0,6.5-2.9,6.5-6.5c0-11-7.5-21-17.9-23.6c-3.5-0.9-7,1.2-7.9,4.7c-0.9,3.5,1.2,7,4.7,7.9C108.2,82.3,111.7,87.1,111.7,92.2
	L111.7,92.2z M135.5,116H129v-6.5c0-3.6-2.9-6.5-6.5-6.5c-3.6,0-6.5,2.9-6.5,6.5v6.5h-6.5c-3.6,0-6.5,2.9-6.5,6.5
	c0,3.6,2.9,6.5,6.5,6.5h6.5v6.5c0,3.6,2.9,6.5,6.5,6.5c3.6,0,6.5-2.9,6.5-6.5V129h6.5c3.6,0,6.5-2.9,6.5-6.5
	C142,118.9,139.1,116,135.5,116z M89.8,104.3c-2.7-0.9-5.6-1.3-8.4-1.3c-14.3,0-26,10.7-26,23.8c0,3.6,2.9,6.5,6.5,6.5
	s6.5-2.9,6.5-6.5c0-6,5.8-10.8,13-10.8c1.6,0,3.1,0.2,4.5,0.7c3.4,1.1,7.1-0.8,8.2-4.3C95.1,109,93.2,105.4,89.8,104.3z"/>
</svg>
