<svg width="15" height="15" viewBox="0 0 15 15" fill="none" xmlns="http://www.w3.org/2000/svg">
<g clip-path="url(#clip0_74_433)">
<path d="M14.9707 3.46289L9.70898 8.72461C8.4873 9.94336 6.50977 9.94336 5.28809 8.72461L0.0292969 3.46289C0.0205078 3.5625 0 3.65039 0 3.75V11.25C0.00292969 12.9756 1.40039 14.373 3.12598 14.376H11.877C13.6025 14.373 15 12.9756 15.0029 11.25V3.75C15 3.65332 14.9795 3.5625 14.9707 3.46289Z" fill="#B49CD9"/>
<path d="M8.82715 7.83984L14.5342 2.13281C13.9717 1.20117 12.9639 0.629883 11.874 0.626953H3.12598C2.03613 0.629883 1.02832 1.20117 0.46582 2.13281L6.17578 7.84277C6.9082 8.57227 8.0918 8.57227 8.82715 7.83984Z" fill="#B49CD9"/>
</g>
<defs>
<clipPath id="clip0_74_433">
<rect width="15" height="15" fill="white"/>
</clipPath>
</defs>
</svg>
