<svg width="15" height="15" viewBox="0 0 15 15" fill="none" xmlns="http://www.w3.org/2000/svg">
<g clip-path="url(#clip0_74_428)">
<path d="M12.3633 2.03328C9.69728 -0.659107 5.34962 -0.679615 2.65724 1.98933C-0.0351446 4.65828 -0.0556524 9.003 2.61329 11.6954C2.6338 11.7159 2.65431 11.7364 2.67482 11.7569L5.13575 14.0274C6.45118 15.3135 8.55177 15.3194 9.87306 14.0391L12.3633 11.7364C15.044 9.0616 15.044 4.71394 12.3633 2.03328ZM11.2559 8.44636C11.2559 9.30769 10.5586 10.005 9.69728 10.005H5.32618C4.46486 10.005 3.76759 9.30769 3.76759 8.44636V6.34285C3.76759 5.73054 4.06935 5.15339 4.57325 4.80476L6.44532 3.50691C7.08693 3.06453 7.93653 3.06453 8.57814 3.50691L10.4502 4.80476C10.9541 5.15339 11.2559 5.73054 11.2559 6.34285V8.44636ZM10.0078 6.34285V8.44636C10.0078 8.61921 9.8672 8.75691 9.69728 8.75691H8.75978V7.50886C8.75978 7.16316 8.48146 6.88484 8.13575 6.88484H6.88771C6.542 6.88484 6.26368 7.16316 6.26368 7.50886V8.75984H5.32911C5.15626 8.75984 5.01857 8.61921 5.01857 8.44929V6.34578C5.01857 6.1407 5.11818 5.95027 5.2881 5.83308L7.16017 4.53523C7.37403 4.38874 7.65821 4.38874 7.87208 4.53523L9.74415 5.83308C9.90821 5.94734 10.0078 6.13777 10.0078 6.34285Z" fill="#B49CD9"/>
</g>
<defs>
<clipPath id="clip0_74_428">
<rect width="15" height="15" fill="white"/>
</clipPath>
</defs>
</svg>
