<svg width="15" height="15" viewBox="0 0 15 15" fill="none" xmlns="http://www.w3.org/2000/svg">
<path d="M9.375 0H5.625C3.90234 0 2.49902 1.40332 2.49902 3.12598V11.877C2.49902 13.5967 3.90234 15 5.625 15H9.375C11.0977 15 12.501 13.5967 12.501 11.874V3.12598C12.501 1.40332 11.0977 0 9.375 0ZM8.12402 13.125H6.87305C6.52734 13.125 6.24902 12.8438 6.24902 12.501C6.24902 12.1582 6.53027 11.877 6.87305 11.877H8.12402C8.46973 11.877 8.74805 12.1582 8.74805 12.501C8.74805 12.8438 8.46973 13.125 8.12402 13.125Z" fill="#B49CD9"/>
</svg>
