<svg width="25" height="25" viewBox="0 0 25 25" fill="none" xmlns="http://www.w3.org/2000/svg">
<g clip-path="url(#clip0_74_410)">
<path fill-rule="evenodd" clip-rule="evenodd" d="M12.5 0.307617C5.5957 0.307617 0 5.90332 0 12.8076C0 18.3301 3.5791 23.0176 8.5498 24.668C9.1748 24.7852 9.4043 24.3994 9.4043 24.0674C9.4043 23.7695 9.39453 22.7832 9.38965 21.7383C5.9082 22.5 5.17578 20.2686 5.17578 20.2686C4.60938 18.8232 3.78906 18.4375 3.78906 18.4375C2.65625 17.6611 3.87207 17.6758 3.87207 17.6758C5.12695 17.7637 5.78613 18.9648 5.78613 18.9648C6.89941 20.874 8.71094 20.3223 9.42383 20.0049C9.53613 19.1943 9.8584 18.6475 10.2197 18.335C7.44141 18.0176 4.52637 16.9482 4.52637 12.1582C4.52637 10.7959 5.01465 9.67773 5.81543 8.80371C5.68359 8.48633 5.25879 7.2168 5.9375 5.49316C5.9375 5.49316 6.9873 5.15625 9.375 6.77246C10.3711 6.49414 11.4404 6.35742 12.5049 6.35254C13.5693 6.35742 14.6387 6.49414 15.6348 6.77246C18.0225 5.15625 19.0674 5.49316 19.0674 5.49316C19.7461 7.2168 19.3213 8.48633 19.1895 8.80371C19.9902 9.67773 20.4736 10.7959 20.4736 12.1582C20.4736 16.958 17.5488 18.0176 14.7656 18.3252C15.2148 18.7109 15.6152 19.4727 15.6152 20.6397C15.6152 22.3145 15.6006 23.6572 15.6006 24.0723C15.6006 24.4043 15.8252 24.7949 16.46 24.6729C21.4258 23.0127 25 18.3301 25 12.8076C25 5.90332 19.4043 0.307617 12.5 0.307617Z" fill="#B49CD9"/>
<path d="M4.73632 18.2569C4.70703 18.3203 4.60937 18.3399 4.52148 18.2959C4.42871 18.2569 4.37988 18.169 4.40918 18.1104C4.43847 18.0469 4.53613 18.0274 4.62402 18.0713C4.71191 18.1104 4.76562 18.1934 4.73632 18.2569Z" fill="#B49CD9"/>
<path d="M5.23926 18.8232C5.18067 18.877 5.06348 18.8525 4.98535 18.7646C4.90235 18.6768 4.8877 18.5596 4.95117 18.5059C5.01465 18.4521 5.12696 18.4766 5.20508 18.5645C5.28809 18.6475 5.30274 18.7646 5.23926 18.8232Z" fill="#B49CD9"/>
<path d="M5.73242 19.5409C5.6543 19.5946 5.53223 19.5458 5.4541 19.4335C5.37598 19.3212 5.37598 19.1893 5.4541 19.1356C5.53223 19.0819 5.6543 19.1307 5.73242 19.2431C5.81055 19.3554 5.81055 19.4872 5.73242 19.5409Z" fill="#B49CD9"/>
<path d="M6.40625 20.2343C6.33789 20.3125 6.19141 20.288 6.08399 20.1855C5.97657 20.083 5.94239 19.9414 6.01075 19.8681C6.07911 19.79 6.22559 19.8144 6.33301 19.9169C6.4502 20.0195 6.4795 20.1611 6.40625 20.2343Z" fill="#B49CD9"/>
<path d="M7.33887 20.6398C7.30957 20.7374 7.16797 20.7814 7.02637 20.7423C6.88476 20.6984 6.79199 20.5861 6.82129 20.4884C6.85058 20.3907 6.99219 20.3419 7.13379 20.3907C7.27539 20.4249 7.36816 20.5421 7.33887 20.6398Z" fill="#B49CD9"/>
<path d="M8.36426 20.7129C8.36914 20.8154 8.24707 20.9033 8.10059 20.9033C7.94922 20.9082 7.83203 20.8252 7.82715 20.7226C7.82715 20.6201 7.94434 20.5322 8.0957 20.5322C8.24219 20.5273 8.36426 20.6103 8.36426 20.7129Z" fill="#B49CD9"/>
<path d="M9.31641 20.5518C9.33594 20.6495 9.2334 20.7569 9.08203 20.7813C8.93555 20.8106 8.80371 20.7471 8.78418 20.6446C8.76465 20.5421 8.87207 20.4395 9.01855 20.4102C9.16504 20.3907 9.29687 20.4493 9.31641 20.5518Z" fill="#B49CD9"/>
</g>
<defs>
<clipPath id="clip0_74_410">
<rect width="25" height="25" fill="white"/>
</clipPath>
</defs>
</svg>
