<svg width="139" height="40" viewBox="0 0 139 40" fill="none" xmlns="http://www.w3.org/2000/svg">
<g clip-path="url(#clip0_97_2)">
<path d="M11.875 15.75C11.875 17.125 11.25 18.25 10.375 19.25C9.375 20.25 7.875 20.5 7.875 21.375C7.875 22.625 9.75 22.25 11.625 24C12.875 25.25 13.625 26.875 13.625 28.75C13.625 32.375 10.625 35.375 6.875 35.375C3.125 35.375 0.125 32.5 0.125 28.75C0.125 26.875 0.875 25.25 2.125 24C4 22.125 5.875 22.5 5.875 21.375C5.875 20.5 4.375 20.25 3.375 19.25C2.375 18.375 1.875 17.125 1.875 15.75C1.875 13 4.125 10.875 6.75 10.875C7.25 10.875 7.75 11 8.125 11C8.875 11 9.25 10.75 9.25 10.25C9.25 10 9.125 9.625 9.125 9.25C9.125 8.25 9.875 7.5 10.75 7.5C11.625 7.5 12.375 8.25 12.375 9.125C12.375 10.125 11.625 10.5 11 10.75C10.625 10.875 10.25 11.125 10.25 11.625C10.25 12.5 11.875 13.375 11.875 15.75ZM11.375 28.875C11.375 26.25 9.5 24.25 6.875 24.25C4.25 24.25 2.375 26.375 2.375 28.875C2.375 31.375 4.25 33.5 6.875 33.5C9.5 33.5 11.375 31.375 11.375 28.875ZM9.875 15.75C9.875 14.125 8.5 12.75 6.875 12.75C5.25 12.75 3.875 14.125 3.875 15.75C3.875 17.375 5.25 18.75 6.875 18.75C8.5 18.75 9.875 17.375 9.875 15.75ZM21.25 11.125C22.125 11.125 22.75 11.75 22.75 12.5C22.75 13.25 22.125 13.875 21.375 13.875C20.5 13.875 20 13.375 19.125 13.375C18.25 13.375 17.625 14 17.625 15V23.125C17.625 23.75 17.125 24.25 16.5 24.25C15.875 24.25 15.375 23.75 15.375 23.125V12.125C15.375 11.5 15.875 11 16.5 11C17.625 11 17.375 12.125 18.5 12.125C19.625 12.125 20 11.125 21.25 11.125ZM23.625 17.625C23.625 13.75 26.375 10.875 30 10.875C33.375 10.875 36.125 13.375 36.125 16.75C36.125 17.5 35.625 18.125 34.875 18.125H26.375C26 18.125 25.875 18.25 25.875 18.5C25.875 19.125 26.375 20.375 27.125 21.125C27.875 21.875 29 22.375 30.5 22.375C31.625 22.375 32.625 22 33.375 21.375C33.75 21.25 34 21.25 34.25 21.25C34.75 21.25 35.25 21.75 35.25 22.25C35.25 22.5 35.125 22.875 34.875 23C33.75 23.875 32.25 24.375 30.625 24.375C26.625 24.375 23.625 21.5 23.625 17.625ZM32.875 13.875C32.125 13.125 31.25 12.75 30.125 12.75C29 12.75 28 13.25 27.25 14C26.625 14.625 26.25 15.375 26.25 15.875C26.25 16.125 26.375 16.25 26.75 16.25H33.5C33.875 16.25 34 16.125 34 15.875C33.875 15.25 33.375 14.5 32.875 13.875ZM38.5 17.625C38.5 13.75 41.25 10.875 44.875 10.875C48.25 10.875 51 13.375 51 16.75C51 17.5 50.5 18.125 49.75 18.125H41.25C40.875 18.125 40.75 18.25 40.75 18.5C40.75 19.125 41.25 20.375 42 21.125C42.75 21.875 43.875 22.375 45.375 22.375C46.5 22.375 47.5 22 48.25 21.375C48.5 21.25 48.75 21.125 49 21.125C49.5 21.125 50 21.625 50 22.125C50 22.375 49.875 22.75 49.625 22.875C48.5 23.75 47 24.25 45.375 24.25C41.375 24.375 38.5 21.5 38.5 17.625ZM47.75 13.875C47 13.125 46.125 12.75 45 12.75C43.875 12.75 42.875 13.25 42.125 14C41.5 14.625 41.125 15.375 41.125 15.875C41.125 16.125 41.25 16.25 41.625 16.25H48.375C48.75 16.25 48.875 16.125 48.875 15.875C48.75 15.25 48.25 14.5 47.75 13.875ZM64.125 24.25C63.5 24.25 63 23.75 63 23.125V16.125C63 14.25 61.5 12.875 59.625 12.875C57.75 12.875 56.25 14.25 56.25 16.125V23.125C56.25 23.75 55.75 24.25 55.125 24.25C54.5 24.25 54 23.75 54 23.125V12.125C54 11.5 54.5 11 55.125 11C56.25 11 56.125 12 56.75 12C57.375 12 58.125 10.875 60.125 10.875C63 10.875 65.125 13.25 65.125 16.125V23.125C65.125 23.75 64.625 24.25 64.125 24.25ZM79 24.25C78.375 24.25 77.875 23.75 77.875 23.125V16.125C77.875 14.25 76.375 12.875 74.5 12.875C72.625 12.875 71.125 14.25 71.125 16.125V23.125C71.125 23.75 70.625 24.25 70 24.25C69.375 24.25 68.875 23.75 68.875 23.125V5.625C68.875 5 69.375 4.5 70 4.5C70.75 4.5 71.25 5 71.25 5.625V11.375C71.25 11.625 71.375 11.875 71.75 11.875C72.375 11.875 73.125 10.875 75.125 10.875C78 10.875 80.125 13.25 80.125 16.125V23.125C80.125 23.75 79.625 24.25 79 24.25ZM83.125 17.625C83.125 13.875 86.125 10.875 90 10.875C93.75 10.875 96.875 13.875 96.875 17.625C96.875 21.375 93.875 24.375 90 24.375C86.25 24.375 83.125 21.375 83.125 17.625ZM94.625 17.625C94.625 15 92.625 12.875 90 12.875C87.375 12.875 85.375 15 85.375 17.625C85.375 20.25 87.375 22.375 90 22.375C92.625 22.5 94.625 20.25 94.625 17.625ZM101 11C101.625 11 102.125 11.5 102.125 12.125V19.125C102.125 21 103.625 22.375 105.5 22.375C107.375 22.375 108.875 21 108.875 19.125V12.125C108.875 11.5 109.375 11 110 11C110.625 11 111.125 11.5 111.125 12.125V23.125C111.125 23.75 110.625 24.25 110 24.25C108.875 24.25 109 23.25 108.375 23.25C107.75 23.25 107 24.375 105 24.375C102.125 24.375 100 22 100 19.125V12.125C99.875 11.5 100.375 11 101 11ZM115 23.5C114.5 23.25 114.125 22.875 114.125 22.25C114.125 21.625 114.625 21.25 115.125 21.25C115.75 21.25 116.125 21.625 116.625 21.875C117.25 22.25 118.125 22.5 119 22.5C120.75 22.5 121.625 21.75 121.625 20.75C121.625 19.375 120.375 19.125 118.5 18.625C116.25 18 114.25 17.375 114.25 14.875C114.25 12.625 116 11 119 11C120.25 11 121.375 11.25 122.25 11.875C122.625 12 122.875 12.5 122.875 12.875C122.875 13.5 122.375 14 121.75 14C121.375 14 121 13.75 120.625 13.5C120.25 13.25 119.625 13 118.875 13C117.125 13 116.375 13.75 116.375 14.75C116.375 16.125 117.625 16.375 119.5 16.875C121.625 17.375 123.75 18.125 123.75 20.625C123.75 22.875 122.125 24.625 118.875 24.625C117.375 24.375 116 24.125 115 23.5ZM125.875 17.625C125.875 13.75 128.625 10.875 132.25 10.875C135.625 10.875 138.375 13.375 138.375 16.75C138.375 17.5 137.875 18.125 137.125 18.125H128.75C128.375 18.125 128.25 18.25 128.25 18.5C128.25 19.125 128.75 20.375 129.5 21.125C130.25 21.875 131.375 22.375 132.875 22.375C134 22.375 135 22 135.75 21.375C136 21.25 136.25 21.125 136.5 21.125C137 21.125 137.5 21.625 137.5 22.125C137.5 22.375 137.375 22.75 137.125 22.875C136 23.75 134.5 24.25 132.875 24.25C128.75 24.375 125.875 21.5 125.875 17.625ZM135.125 13.875C134.375 13.125 133.5 12.75 132.375 12.75C131.25 12.75 130.25 13.25 129.5 14C128.875 14.625 128.5 15.375 128.5 15.875C128.5 16.125 128.625 16.25 129 16.25H135.75C136.125 16.25 136.25 16.125 136.25 15.875C136.125 15.25 135.625 14.5 135.125 13.875Z" fill="#B49CD9"/>
</g>
<defs>
<clipPath id="clip0_97_2">
<rect width="138.75" height="40" fill="white"/>
</clipPath>
</defs>
</svg>
