<svg width="25" height="25" viewBox="0 0 25 25" fill="none" xmlns="http://www.w3.org/2000/svg">
<g clip-path="url(#clip0_74_399)">
<path d="M12.5 2.25098C15.8398 2.25098 16.2354 2.26562 17.5488 2.32422C18.9111 2.3877 20.3125 2.69531 21.3086 3.69141C22.3096 4.69238 22.6123 6.08398 22.6758 7.45117C22.7344 8.76953 22.749 9.16504 22.749 12.5C22.749 15.835 22.7344 16.2354 22.6758 17.5488C22.6123 18.9062 22.2949 20.3223 21.3086 21.3086C20.3076 22.3096 18.916 22.6123 17.5488 22.6758C16.2305 22.7344 15.835 22.749 12.5 22.749C9.16504 22.749 8.76465 22.7344 7.45117 22.6758C6.1084 22.6123 4.67285 22.29 3.69141 21.3086C2.69531 20.3125 2.3877 18.9062 2.32422 17.5488C2.26562 16.2305 2.25098 15.835 2.25098 12.5C2.25098 9.16504 2.26562 8.76465 2.32422 7.45117C2.3877 6.10352 2.70508 4.67773 3.69141 3.69141C4.69238 2.69043 6.08399 2.3877 7.45117 2.32422C8.76465 2.26562 9.16016 2.25098 12.5 2.25098ZM12.5 0C9.10645 0 8.67676 0.0146484 7.34375 0.0732422C5.41504 0.161133 3.49609 0.703125 2.09961 2.09961C0.698242 3.50098 0.161133 5.41504 0.0732422 7.34375C0.0146484 8.67676 0 9.10645 0 12.5C0 15.8936 0.0146484 16.3232 0.0732422 17.6562C0.161133 19.585 0.703125 21.5088 2.09961 22.9004C3.50098 24.3018 5.41992 24.834 7.34863 24.9219C8.68164 24.9805 9.10645 24.9951 12.5049 24.9951C15.9033 24.9951 16.3281 24.9805 17.6611 24.9219C19.5947 24.834 21.5137 24.2969 22.9102 22.9004C24.3115 21.499 24.8438 19.585 24.9316 17.6514C24.9902 16.3184 25.0049 15.8936 25.0049 12.4951C25.0049 9.09668 24.9902 8.67188 24.9316 7.33887C24.8389 5.41504 24.2969 3.49609 22.9004 2.09961C21.5039 0.698242 19.5801 0.161133 17.6563 0.0732422C16.3232 0.0146484 15.8936 0 12.5 0Z" fill="#B49CD9"/>
<path d="M12.5 6.0791C8.95508 6.0791 6.0791 8.95508 6.0791 12.5C6.0791 16.0449 8.95508 18.9209 12.5 18.9209C16.0449 18.9209 18.9209 16.0449 18.9209 12.5C18.9209 8.95508 16.0449 6.0791 12.5 6.0791ZM12.5 16.665C10.2002 16.665 8.33496 14.7998 8.33496 12.5C8.33496 10.2002 10.2002 8.33496 12.5 8.33496C14.7998 8.33496 16.665 10.2002 16.665 12.5C16.665 14.7998 14.7998 16.665 12.5 16.665Z" fill="#B49CD9"/>
<path d="M19.1748 7.32422C20.0027 7.32422 20.6738 6.65308 20.6738 5.8252C20.6738 4.99731 20.0027 4.32617 19.1748 4.32617C18.3469 4.32617 17.6758 4.99731 17.6758 5.8252C17.6758 6.65308 18.3469 7.32422 19.1748 7.32422Z" fill="#B49CD9"/>
</g>
<defs>
<clipPath id="clip0_74_399">
<rect width="25" height="25" fill="white"/>
</clipPath>
</defs>
</svg>
