<svg width="25" height="25" viewBox="0 0 25 25" fill="none" xmlns="http://www.w3.org/2000/svg">
<g clip-path="url(#clip0_74_420)">
<path d="M21.3037 21.3037H17.5977V15.5029C17.5977 14.121 17.5732 12.3388 15.6689 12.3388C13.7402 12.3388 13.4424 13.8476 13.4424 15.4003V21.3037H9.74121V9.37007H13.2959V11.0009H13.3447C14.0723 9.76069 15.4199 9.02339 16.8555 9.07222C20.6104 9.07222 21.3037 11.5429 21.3037 14.7558V21.3037ZM5.56152 7.73921C4.375 7.73921 3.41309 6.7773 3.41309 5.59077C3.41309 4.40425 4.375 3.44233 5.56152 3.44233C6.74805 3.44233 7.70996 4.40425 7.70996 5.59077C7.70996 6.7773 6.74805 7.73921 5.56152 7.73921ZM7.41211 21.3037H3.70605V9.37007H7.41211V21.3037ZM23.1494 -4.86744e-05H1.8457C0.839844 -0.0098143 0.0146484 0.79585 0 1.80171V23.1933C0.0146484 24.1992 0.839844 25.0097 1.8457 24.9951H23.1494C24.1602 25.0097 24.9854 24.1992 25 23.1933V1.80171C24.9854 0.79585 24.1553 -0.0146971 23.1494 -4.86744e-05Z" fill="#B49CD9"/>
</g>
<defs>
<clipPath id="clip0_74_420">
<rect width="25" height="25" fill="white"/>
</clipPath>
</defs>
</svg>
