<?xml version="1.0" encoding="utf-8"?>
<!-- Generator: Adobe Illustrator 24.1.1, SVG Export Plug-In . SVG Version: 6.00 Build 0)  -->
<svg version="1.1" id="Layer_1" xmlns="http://www.w3.org/2000/svg" xmlns:xlink="http://www.w3.org/1999/xlink" x="0px" y="0px"
	 viewBox="0 0 140 30" style="enable-background:new 0 0 140 30;" xml:space="preserve">
<style type="text/css">
	.st0{fill:#FFFFFF;}
</style>
<g>
	<polygon class="st0" points="5,1.3 0,1.3 0,23.3 4.4,23.3 5,23.3 13.6,23.3 13.6,19 5,19 	"/>
	<path class="st0" d="M94.1,5.1c0.9,0,1.6-0.2,2-0.7c0.4-0.5,0.7-1.1,0.7-1.8c0-0.7-0.2-1.4-0.7-1.8c-0.4-0.5-1.1-0.7-2-0.7
		c-0.9,0-1.6,0.2-2,0.7c-0.4,0.5-0.6,1.1-0.6,1.8c0,0.7,0.2,1.3,0.6,1.8C92.5,4.9,93.2,5.1,94.1,5.1z"/>
	<path class="st0" d="M31.1,8.7c-0.8-0.8-1.7-1.4-2.9-1.8c-1.1-0.5-2.4-0.7-3.8-0.7c-1.4,0-2.7,0.2-3.8,0.7
		c-1.1,0.4-2.1,1.1-2.9,1.8c-0.8,0.8-1.4,1.7-1.8,2.8c-0.4,1-0.6,2.1-0.6,3.3v0.7c0,1.1,0.2,2.2,0.6,3.2c0.4,1,1,1.9,1.8,2.7
		c0.8,0.8,1.7,1.4,2.9,1.9c1.1,0.4,2.4,0.7,3.9,0.7c1.5,0,2.8-0.2,3.9-0.7c1.1-0.5,2.1-1.1,2.8-1.9c0.8-0.8,1.4-1.7,1.8-2.7
		c0.4-1,0.6-2.1,0.6-3.2v-0.7c0-1.1-0.2-2.2-0.6-3.3C32.5,10.4,31.9,9.5,31.1,8.7z M28.2,17.5c-0.3,0.7-0.8,1.3-1.4,1.7
		c-0.6,0.4-1.4,0.6-2.4,0.6c-0.9,0-1.7-0.2-2.3-0.6c-0.6-0.4-1.1-1-1.5-1.7c-0.3-0.7-0.5-1.5-0.5-2.4c0-0.9,0.2-1.8,0.5-2.5
		c0.3-0.7,0.8-1.3,1.5-1.7c0.6-0.4,1.4-0.6,2.3-0.6c0.9,0,1.7,0.2,2.3,0.6c0.6,0.4,1.1,1,1.5,1.7c0.3,0.7,0.5,1.5,0.5,2.5
		C28.8,16,28.6,16.8,28.2,17.5z"/>
	<path class="st0" d="M72.5,8.7c-0.8-0.8-1.7-1.4-2.9-1.8c-1.1-0.5-2.4-0.7-3.8-0.7c-1.4,0-2.7,0.2-3.8,0.7
		c-1.1,0.4-2.1,1.1-2.9,1.8c-0.8,0.8-1.4,1.7-1.8,2.8c-0.4,1-0.6,2.1-0.6,3.3v0.7c0,1.1,0.2,2.2,0.6,3.2c0.4,1,1,1.9,1.8,2.7
		c0.8,0.8,1.7,1.4,2.9,1.9c1.1,0.4,2.4,0.7,3.9,0.7c1.5,0,2.8-0.2,3.9-0.7c1.1-0.5,2.1-1.1,2.8-1.9c0.8-0.8,1.4-1.7,1.8-2.7
		c0.4-1,0.6-2.1,0.6-3.2v-0.7c0-1.1-0.2-2.2-0.6-3.3C73.9,10.4,73.3,9.5,72.5,8.7z M69.6,17.5c-0.3,0.7-0.8,1.3-1.4,1.7
		c-0.6,0.4-1.4,0.6-2.4,0.6c-0.9,0-1.7-0.2-2.3-0.6c-0.6-0.4-1.1-1-1.5-1.7c-0.3-0.7-0.5-1.5-0.5-2.4c0-0.9,0.2-1.8,0.5-2.5
		c0.3-0.7,0.8-1.3,1.5-1.7c0.6-0.4,1.4-0.6,2.3-0.6c0.9,0,1.7,0.2,2.3,0.6c0.6,0.4,1.1,1,1.5,1.7c0.3,0.7,0.5,1.5,0.5,2.5
		C70.1,16,69.9,16.8,69.6,17.5z"/>
	<path class="st0" d="M139.4,11.5c-0.4-1-1-2-1.8-2.8c-0.8-0.8-1.7-1.4-2.9-1.8c-1.1-0.5-2.4-0.7-3.8-0.7c-1.4,0-2.7,0.2-3.8,0.7
		c-1.1,0.4-2.1,1.1-2.9,1.8c-0.8,0.8-1.4,1.7-1.8,2.8c-0.4,1-0.6,2.1-0.6,3.3v0.7c0,1.1,0.2,2.2,0.6,3.2c0.4,1,1,1.9,1.8,2.7
		c0.8,0.8,1.7,1.4,2.9,1.9c1.1,0.4,2.4,0.7,3.9,0.7c1.5,0,2.8-0.2,3.9-0.7c1.1-0.5,2.1-1.1,2.8-1.9c0.8-0.8,1.4-1.7,1.8-2.7
		c0.4-1,0.6-2.1,0.6-3.2v-0.7C140,13.6,139.8,12.5,139.4,11.5z M134.6,17.5c-0.3,0.7-0.8,1.3-1.4,1.7c-0.6,0.4-1.4,0.6-2.4,0.6
		c-0.9,0-1.7-0.2-2.3-0.6c-0.6-0.4-1.1-1-1.5-1.7c-0.3-0.7-0.5-1.5-0.5-2.4c0-0.9,0.2-1.8,0.5-2.5c0.3-0.7,0.8-1.3,1.5-1.7
		c0.6-0.4,1.4-0.6,2.3-0.6c0.9,0,1.7,0.2,2.3,0.6c0.6,0.4,1.1,1,1.5,1.7c0.3,0.7,0.5,1.5,0.5,2.5C135.2,16,135,16.8,134.6,17.5z"/>
	<path class="st0" d="M117.3,8.7c-0.7-0.8-1.5-1.4-2.4-1.8c-0.9-0.4-2-0.6-3.1-0.6c-1.3,0-2.5,0.3-3.5,0.9c-1,0.6-1.8,1.4-2.5,2.6
		c-0.2,0.4-0.4,0.8-0.5,1.3V6.8h-3.8v22.6h4.8v-8.1c0.6,0.8,1.2,1.4,2.1,1.9c1,0.5,2.1,0.8,3.4,0.8c1.2,0,2.3-0.2,3.2-0.6
		c0.9-0.4,1.7-1,2.4-1.8c0.7-0.8,1.2-1.7,1.5-2.7c0.3-1,0.5-2.2,0.5-3.4v-0.7c0-1.2-0.2-2.3-0.5-3.3C118.5,10.3,118,9.4,117.3,8.7z
		 M114,17.5c-0.3,0.7-0.8,1.3-1.5,1.7c-0.6,0.4-1.3,0.6-2.1,0.6c-0.7,0-1.4-0.2-2-0.5c-0.6-0.3-1.2-0.8-1.6-1.4
		c-0.4-0.6-0.6-1.4-0.6-2.2v-1.1c0-0.9,0.2-1.7,0.6-2.3c0.4-0.6,0.9-1.1,1.6-1.5c0.6-0.3,1.3-0.5,2.1-0.5c0.8,0,1.6,0.2,2.2,0.6
		c0.6,0.4,1.1,0.9,1.4,1.6c0.3,0.7,0.5,1.5,0.5,2.5S114.4,16.8,114,17.5z"/>
	<path class="st0" d="M49.7,10.3c-0.1-0.2-0.2-0.4-0.2-0.6c-0.6-1.1-1.3-2-2.3-2.6c-1-0.6-2.1-0.9-3.4-0.9c-1.1,0-2.2,0.2-3.1,0.6
		c-0.9,0.4-1.8,1-2.5,1.7c-0.7,0.7-1.2,1.6-1.6,2.6s-0.5,2.1-0.5,3.3v0.7c0,1.2,0.2,2.3,0.5,3.3c0.3,1,0.8,1.9,1.5,2.6
		c0.6,0.7,1.4,1.3,2.3,1.8c0.9,0.4,2,0.6,3.1,0.6c1.3,0,2.4-0.3,3.4-0.8c0.9-0.6,1.7-1.4,2.2-2.4v1.5c0,1-0.2,1.8-0.6,2.4
		c-0.4,0.6-1,1.1-1.8,1.4c-0.8,0.3-1.9,0.5-3.2,0.5c-0.7,0-1.5,0-2.4-0.1c-0.8-0.1-1.6-0.1-2.3-0.2v4.1c0.7,0.1,1.5,0.2,2.3,0.2
		s1.7,0.1,2.5,0.1c2.3,0,4.1-0.3,5.6-0.9c1.5-0.6,2.6-1.5,3.3-2.8c0.7-1.3,1.1-2.9,1.1-4.9V6.8h-3.8V10.3z M48.9,15.2
		c0,0.9-0.2,1.6-0.5,2.3c-0.3,0.6-0.8,1.1-1.4,1.5c-0.6,0.3-1.3,0.5-2,0.5c-0.8,0-1.5-0.2-2.1-0.5c-0.6-0.4-1.1-0.9-1.5-1.5
		c-0.3-0.7-0.5-1.5-0.5-2.5c0-0.9,0.2-1.7,0.5-2.4c0.3-0.7,0.8-1.2,1.5-1.6c0.6-0.4,1.3-0.6,2.1-0.6c0.7,0,1.3,0.2,1.9,0.5
		c0.6,0.3,1.1,0.8,1.5,1.4c0.4,0.6,0.6,1.3,0.6,2.2V15.2z"/>
	<path class="st0" d="M83.3,2.3h-4.5v4.5h-2.5v3.5h2.5v6.6c0,1.7,0.2,3,0.7,4c0.5,1,1.2,1.7,2.3,2.1c1,0.4,2.4,0.6,4.1,0.6h2.3v-4.1
		h-2.5c-0.8,0-1.4-0.2-1.8-0.6c-0.4-0.4-0.6-1-0.6-1.8v-6.7h4.8V6.8h-4.8V2.3z"/>
	<polygon class="st0" points="90,6.8 90,10.3 92.2,10.3 92.2,23.3 97,23.3 97,10.3 97,6.8 92.2,6.8 	"/>
</g>
</svg>
