<svg width="123" height="40" viewBox="0 0 123 40" fill="none" xmlns="http://www.w3.org/2000/svg">
<g clip-path="url(#clip0_97_6)">
<path d="M74.5 22.125C74.5 22.125 74.25 21.25 74.25 20.5V10.125H78.375V30.25L65 19.125C64.25 18.5 63.875 17.875 63.875 17.875C63.875 17.875 64.125 18.625 64.125 19.25V29.75H60V9.75002L73.25 20.625C74 21.25 74.5 22.125 74.5 22.125ZM112.375 10.125C119 10.125 120.75 12.75 120.75 16.5C120.75 19.25 118.75 21.875 114.75 22.25H114.25C114.25 22.25 114.625 22.375 115 22.75L122.375 29.875H116.75L106.5 19.5H111.625C116.25 19.5 116.375 17.125 116.375 16.5C116.5 15 116 13.75 112.5 13.75H106.625V30H102.25V10.125H112.375ZM80.375 20.25C80.375 12 87.25 9.87502 93 9.87502C95.375 9.87502 97.375 10.125 99.5 10.5V14.625C98.25 14.25 95.75 13.375 93 13.375C87.5 13.375 84.875 15.5 84.875 20.125C84.875 23.875 87.75 26.375 93 26.375C95.75 26.375 98.625 25.75 100 25.25V29.25C97.875 29.75 95.375 30 93 30C86.875 30.125 80.375 27.125 80.375 20.25ZM33.375 10.625L37.5 14.5C37.375 14.5 37.25 14.625 37.125 14.75C36.875 14.875 36.625 15 36.25 15.25C35.625 15.75 34.75 16.5 33.625 17.625L25.625 26C24.25 27.5 22.875 28.625 21.625 29.25L17.5 25.375C17.625 25.375 17.75 25.25 17.875 25.125C18.125 25 18.375 24.875 18.75 24.625C19.375 24.125 20.25 23.375 21.375 22.25L29.375 13.875C30.625 12.5 32 11.25 33.375 10.625ZM17.5 31.125C19.25 31.125 21 30.75 22.125 30.125C22.625 29.875 23.375 29.375 24 28.875C24.625 28.375 25.5 27.625 26.25 26.875L34.25 18.5C36.25 16.375 37.5 15.75 38.25 15.5L42.375 19.375C41.5 20.25 31.375 31.125 31.375 31.125C30.625 31.875 30 32.625 29.5 33C29 33.5 28.25 34.125 27.75 34.375C25.375 36.125 22.125 37.5 17.875 37.5C8 37.5 0 29.625 0 20.5C0 9.12502 8.875 2.50002 17 2.50002C19.5 2.37502 21.5 2.87502 23 3.37502C24.5 3.87502 25.5 4.50002 26.375 4.87502C25.375 5.50002 24.5 6.25002 23 7.87502L21.375 9.62502C21 9.50002 19.375 8.87502 17.125 9.00002C12 9.12502 6.25 13.375 6.5 20.25C6.75 26.75 12 31.125 17.5 31.125ZM32.625 9.87502C32.125 10.125 31.375 10.625 30.75 11.125C30.125 11.625 29.25 12.375 28.5 13.125L20.5 21.5C18.5 23.625 17.25 24.25 16.5 24.5L12.5 20.75C13.375 19.875 23.5 9.00002 23.5 9.00002C24.25 8.25002 24.875 7.50002 25.375 7.12502C25.875 6.62502 26.625 6.00002 27.125 5.75002C29.5 3.87502 32.75 2.50002 37 2.50002C46.75 2.50002 54.625 10.5 54.625 19.625C54.625 31 45.75 37.5 37.625 37.5C35.125 37.625 33.125 37.125 31.625 36.625C30.125 36.125 29.125 35.5 28.25 35.125C29.25 34.5 30.125 33.75 31.625 32.125L33.25 30.375C33.625 30.5 35.25 31.125 37.5 31C42.625 30.875 48.375 26.625 48.125 19.75C47.875 13.25 42.625 9.00002 37.125 9.00002C35.375 8.87502 33.75 9.25002 32.625 9.87502Z" fill="#B49CD9"/>
</g>
<defs>
<clipPath id="clip0_97_6">
<rect width="122.5" height="40" fill="white"/>
</clipPath>
</defs>
</svg>
