<?xml version="1.0" encoding="utf-8"?>
<!-- Generator: Adobe Illustrator 24.1.1, SVG Export Plug-In . SVG Version: 6.00 Build 0)  -->
<svg version="1.1" id="Layer_1" xmlns="http://www.w3.org/2000/svg" xmlns:xlink="http://www.w3.org/1999/xlink" x="0px" y="0px"
	 viewBox="0 0 400 400" style="enable-background:new 0 0 400 400;" xml:space="preserve">
<style type="text/css">
	.st0{clip-path:url(#SVGID_2_);}
	.st1{fill:none;stroke:#3F295F;stroke-width:0.5;stroke-miterlimit:2;}
	.st2{fill:#5F005F;}
</style>
<g>
	<defs>
		<rect id="SVGID_1_" width="400" height="400"/>
	</defs>
	<clipPath id="SVGID_2_">
		<use xlink:href="#SVGID_1_"  style="overflow:visible;"/>
	</clipPath>
	<g class="st0">
		<path class="st1" d="M384.5,114.5l134,15.9 M463.5,440l-98-71.5L260,330l-105.5-61L20,299.5L147.5,382l-84.3,57.8L20,299.5
			l-118.5-53L51,191l-66.5-76.5l78.8-74.8l-97.8-71.3"/>
		<path class="st1" d="M-15.5,114.5l134,16L195,191l106.5,55.5l-147.3,22.3l-103.5-78 M185,452.5L147.5,382"/>
		<path class="st1" d="M260,330l29,91l76.5-52.5l54.5-69l-118.5-53L260,330l-112.5,52l7-113l40.5-78l74.5-56.5l115-20l-95.8-93.8
			L185,52.5L147.5-18L63.3,39.8l55.3,90.8L51,191L20,299.5l-54.5,69l98,71.5"/>
		<path class="st1" d="M260-70l29.3,91.3l76.3-52.8 M301.5,246.5l-32-112l-151-4l66.5-78 M451,191l-181.5-56.5 M195,191H51"/>
		<path class="st1" d="M-111,21L63.3,39.8L185,52.5l84.5,82l19.3-113.8L463.5,40l-79,74.5L451,191l-149.5,55.5l64,122 M147.5-18
			l141.3,38.8 M289,421l-141.5-39 M20-100.5L63.5,40 M51,191l-181.5-56.5"/>
	</g>
	<g class="st0">
		<circle class="st2" cx="384.5" cy="114.5" r="2.5"/>
		<circle class="st2" cx="269.5" cy="134.5" r="2.5"/>
		<circle class="st2" cx="301.5" cy="246.5" r="2.5"/>
		<circle class="st2" cx="365.5" cy="368.5" r="2.5"/>
		<circle class="st2" cx="260" cy="330" r="2.5"/>
		<circle class="st2" cx="154.5" cy="269" r="2.5"/>
		<circle class="st2" cx="147.5" cy="382" r="2.5"/>
		<circle class="st2" cx="20" cy="299.5" r="2.5"/>
		<circle class="st2" cx="51" cy="191" r="2.5"/>
		<circle class="st2" cx="63.5" cy="40" r="2.5"/>
		<circle class="st2" cx="185" cy="52.5" r="2.5"/>
		<circle class="st2" cx="289" cy="21" r="2.5"/>
		<circle class="st2" cx="118.5" cy="130.5" r="2.5"/>
		<circle class="st2" cx="195" cy="191" r="2.5"/>
	</g>
</g>
</svg>
