<svg width="109" height="40" viewBox="0 0 109 40" fill="none" xmlns="http://www.w3.org/2000/svg">
<path fill-rule="evenodd" clip-rule="evenodd" d="M101.625 13.875C103.5 13.875 105.625 14.25 107 14.875V11.125C105.5 10.625 103.5 10.25 101 10.25C96 10.25 92.75 12.125 92.75 16C92.75 22.625 102.25 21.25 102.25 24.375C102.25 25.625 101.125 26.25 98.875 26.25C96.875 26.25 94.5 26.25 92.625 25.375V29.125C94.5 29.75 97.125 30 99.125 30C104.25 30 108 28.5 108 23.75C108 17.375 98.375 19.25 98.375 15.5C98.375 13.875 99.875 13.875 101.625 13.875ZM81.5 24.75H79.75V29.875H73.75V10.125C73.875 10.125 78.5 10.25 80.625 10.125C86.75 10.25 90.875 12.25 90.875 17C90.875 22.625 86.875 24.75 81.5 24.75ZM80.625 13.5H79.75V21.25H80.625C83.625 21.25 84.875 20.375 84.875 17C84.875 14.875 83.5 13.625 80.625 13.5ZM64.375 10.125H70.375V29.875H64.375V10.125ZM49.875 29.875V10.125H55.875V25.625H61.875L61 29.875H49.875ZM40.375 10.125H46.375V29.875H40.375V10.125ZM31 22.125H25V29.875H19V10.125H25V17.875H31V10.125H37V29.875H31V22.125ZM7.875 24.75H6.125V29.875H0.25V10.125C0.375 10.125 5 10.25 7.125 10.125C13.25 10.25 17.375 12.25 17.375 17C17.375 22.625 13.375 24.75 7.875 24.75ZM7.125 13.5H6.25V21.25H7.125C10.125 21.25 11.375 20.375 11.375 17C11.375 14.875 9.875 13.625 7.125 13.5Z" fill="#B49CD9"/>
</svg>
