<svg width="112" height="40" viewBox="0 0 112 40" fill="none" xmlns="http://www.w3.org/2000/svg">
<g clip-path="url(#clip0_97_10)">
<path d="M28.125 36.5L89.25 31.25H22.875L28.125 36.5ZM103.5 9.125C102.25 9.125 101 9.5 100 10.25V9.5H95.875V27.75H100V17.125C100 16.625 100 16.25 100.25 15.75C100.375 15.25 100.625 14.875 101 14.625C101.375 14.25 101.75 14 102.125 13.875C102.5 13.75 103 13.625 103.5 13.625C104 13.625 104.375 13.75 104.875 13.875C105.25 14 105.625 14.375 106 14.625C106.375 15 106.5 15.375 106.75 15.75C106.875 16.25 107 16.625 107 17.125V27.875H111.125V17.125C110.875 12.625 107.875 9.125 103.5 9.125ZM86.375 9C81.625 9 78.25 13.25 78.25 18.625C78.25 24.25 82.5 28.25 86.75 28.25C88.875 28.25 91.625 27.5 94 24.125L90.375 22C87.625 26.125 82.875 24.125 82.375 19.875H94.125C95.25 13.375 91 9 86.375 9ZM82.625 16.25C83.5 12 89.125 11.75 90 16.25H82.625ZM69.5 21.625C69.5 22.5 69.625 23.25 69.875 24.125C70.125 24.875 70.625 25.625 71.125 26.25C71.75 26.875 72.375 27.375 73.125 27.625C73.875 28 74.75 28.125 75.5 28.125C76.875 28.125 78.25 27.625 79.5 27L76.875 23.375C76.5 23.625 76 23.875 75.5 23.875C75.25 23.875 75 23.75 74.75 23.625C74.5 23.5 74.25 23.375 74.125 23.125C74 22.875 73.75 22.625 73.75 22.375C73.625 22.125 73.625 21.875 73.625 21.5V13.625H77.125V9.5H73.625V4.875H69.5V9.375H67.375V13.75H69.5V21.625ZM58.25 28.125C59.5 28.125 60.75 27.75 61.75 27V27.625H65.875V9.5H61.75V20.25C61.75 20.75 61.75 21.125 61.5 21.625C61.375 22.125 61.125 22.5 60.75 22.75C60.375 23.125 60 23.375 59.625 23.5C59.25 23.625 58.75 23.75 58.25 23.75C57.75 23.75 57.375 23.625 56.875 23.5C56.5 23.375 56.125 23 55.75 22.75C55.375 22.375 55.25 22 55 21.625C54.875 21.125 54.75 20.75 54.75 20.25V9.5H50.625V20.25C50.875 24.625 53.875 28.125 58.25 28.125ZM39.625 20.25L45.75 27.75H51.5L43.375 18L50.375 9.375H44.625L39.625 15.75V3.5H35.5V27.875H39.625V20.25ZM29 26.875V27.625H33.125V9.5H29V10.25C27.875 9.375 26.5 9 25.125 9C20.5 9 16.875 13.25 16.875 18.625C16.875 23.875 20.375 28.25 25.125 28.25C26.5 28.125 27.875 27.75 29 26.875ZM21.125 18.625C21.125 15.75 22.75 13.5 25.125 13.5C27.5 13.5 29 15.75 29 18.625C29 21.5 27.375 23.75 25.125 23.75C22.75 23.875 21.125 21.5 21.125 18.625ZM15.625 12.75C15.625 10.625 14.75 8.625 13.375 7.25C11.875 5.75 9.875 4.875 7.875 4.875H0.875V27.625H5.125V20.625H8.125L13.375 27.625H18.75L12.375 19.125C13.375 18.375 14.25 17.375 14.75 16.375C15.375 15.25 15.625 14 15.625 12.75ZM7.875 16.375H5.125V9.25H7.875C8.75 9.25 9.75 9.625 10.375 10.25C11 10.875 11.375 11.875 11.375 12.75C11.375 13.75 11 14.625 10.375 15.25C9.75 16 8.875 16.375 7.875 16.375Z" fill="#B49CD9"/>
</g>
<defs>
<clipPath id="clip0_97_10">
<rect width="111.25" height="40" fill="white"/>
</clipPath>
</defs>
</svg>
