<svg width="112" height="40" viewBox="0 0 112 40" fill="none" xmlns="http://www.w3.org/2000/svg">
<path d="M71.875 11C67 11 63.125 15 63.125 20C63.125 25 67.125 28.875 72 28.875C76.875 28.875 80.75 24.875 80.75 19.875C80.75 15 76.75 11 71.875 11ZM72 25.25C70.625 25.25 69.25 24.75 68.375 23.75C67.375 22.75 66.875 21.5 66.875 20.125C66.875 18.75 67.375 17.375 68.375 16.5C69.375 15.5 70.625 15 72 15C73.375 15 74.75 15.5 75.625 16.5C76.625 17.5 77.125 18.75 77.125 20.125C77.125 22.75 74.75 25.25 72 25.25ZM91.5 15.25C89 15.25 87 17.375 87 19.875V28.375H83.125V11.5H87V14.125C87 14.125 88.625 11.5 92 11.5H93.125V15.25H91.5ZM53 11.625L55.875 23.125L58.875 11.5H62.75L58 28.375H54.25L51.25 16.625L48.375 28.375H44.625L39.625 11.5H43.375L46.75 23L49.5 11.375L53 11.625ZM104.375 19.125C107 17.625 108.875 14.75 108.875 11.375H105C105 14.25 102.75 16.625 100 16.625H99.5V3.25H95.625L95.75 28.25H99.625V20.375H100.125C100.625 20.375 101 20.625 101.125 20.875L106.5 28.25H111L104.375 19.125ZM30.625 11.25C26.5 11.25 23.25 14 22.125 18.5C20.125 15.375 18.625 11.875 17.625 8.875H13.25V20.5C13.25 21.625 12.875 22.625 12 23.5C11.25 24.25 10.125 24.75 9 24.75C7.875 24.75 6.875 24.375 6 23.5C5.25 22.75 4.75 21.625 4.75 20.5V8.875H0.375V20.5C0.375 25.375 4.25 29.125 9 29.125C13.75 29.125 17.625 25.25 17.5 20.375V18.375C18.375 20.125 19.5 22 20.75 23.625L18 36.5H22.5L24.5 27.125C26.25 28.25 28.25 28.875 30.625 28.875C35.5 28.875 39.375 24.875 39.375 19.75C39.375 17.375 38.375 15.125 36.75 13.5C35.25 12.125 33 11.25 30.625 11.25ZM30.75 24.5C29 24.5 27.25 23.75 25.75 22.5L26.125 20.75V20.625C26.5 18.75 27.375 15.5 30.75 15.5C31.875 15.5 33 16 33.875 16.75C34.75 17.625 35.125 18.625 35.25 19.875C35.125 22.5 33.125 24.5 30.75 24.5Z" fill="#B49CD9"/>
</svg>
